<?xml version="1.0" encoding="utf-8"?>
<!-- Generator: Adobe Illustrator 27.9.0, SVG Export Plug-In . SVG Version: 6.00 Build 0)  -->
<svg version="1.1" id="Camada_1" xmlns="http://www.w3.org/2000/svg" xmlns:xlink="http://www.w3.org/1999/xlink" x="0px" y="0px"
	 viewBox="0 0 48.75 48.75" style="enable-background:new 0 0 48.75 48.75;" xml:space="preserve">
<style type="text/css">
	.st0{clip-path:url(#SVGID_00000000223069273301331490000002473203644836897966_);fill:#EEE2DC;}
	.st1{clip-path:url(#SVGID_00000000223069273301331490000002473203644836897966_);fill:#FED3BB;}
	.st2{clip-path:url(#SVGID_00000120556733122747942290000007856049161195310480_);fill:#FED3BB;}
	.st3{clip-path:url(#SVGID_00000093176605147630276740000014336613969955788712_);fill:#F3B49C;}
	.st4{clip-path:url(#SVGID_00000133531581023875322340000012744987761319246012_);fill:#FFFFFF;}
	.st5{clip-path:url(#SVGID_00000116209650551778095980000012814959793241754805_);fill:#524347;}
	.st6{clip-path:url(#SVGID_00000039092391814122071900000011993658602248530592_);}
	.st7{clip-path:url(#SVGID_00000021083806160549648560000000047236388436223927_);fill:#126466;}
	.st8{clip-path:url(#SVGID_00000039092391814122071900000011993658602248530592_);fill:#EEE2DC;}
	.st9{fill:#FED3BB;}
	.st10{fill:#F3B49C;}
	.st11{fill:#FFFFFF;}
	.st12{fill:#524347;}
	.st13{fill:#EEE2DC;}
	.st14{clip-path:url(#SVGID_00000039092391814122071900000011993658602248530592_);fill:none;}
</style>
<g>
	<defs>
		<rect id="SVGID_1_" x="160.28" y="28.55" width="36" height="45"/>
	</defs>
	<clipPath id="SVGID_00000041998885382143532550000015494362506404555652_">
		<use xlink:href="#SVGID_1_"  style="overflow:visible;"/>
	</clipPath>
	<path style="clip-path:url(#SVGID_00000041998885382143532550000015494362506404555652_);fill:#EEE2DC;" d="M181.67,47.92
		c-0.35-0.03-0.63,0.19-0.69,0.53c-0.05,0.28,0.16,0.6,0.45,0.67c0.28,0.07,0.5-0.03,0.68-0.24c0.03-0.05,0.05-0.1,0.08-0.15
		c0.01-0.08,0.03-0.15,0.02-0.23C182.2,48.22,181.96,47.95,181.67,47.92"/>
	<path style="clip-path:url(#SVGID_00000041998885382143532550000015494362506404555652_);fill:#EEE2DC;" d="M183.55,47.95
		c-0.1-0.26-0.34-0.42-0.63-0.4c-0.28,0.02-0.51,0.23-0.56,0.51c-0.05,0.26,0.1,0.53,0.35,0.66c0.04,0.02,0.07,0.04,0.11,0.05
		c0.15,0,0.3,0.01,0.43-0.05c0.02-0.02,0.04-0.03,0.07-0.05C183.56,48.51,183.65,48.22,183.55,47.95"/>
	<polyline style="clip-path:url(#SVGID_00000041998885382143532550000015494362506404555652_);fill:#EEE2DC;" points="162.84,69.11 
		162.84,69.11 162.84,69.11 162.84,69.11 	"/>
	<path style="clip-path:url(#SVGID_00000041998885382143532550000015494362506404555652_);fill:#EEE2DC;" d="M164.44,67.19
		L164.44,67.19L164.44,67.19z"/>
	<path style="clip-path:url(#SVGID_00000041998885382143532550000015494362506404555652_);fill:#EEE2DC;" d="M183.99,46.57
		c-0.35-0.02-0.65,0.25-0.65,0.6c-0.01,0.36,0.25,0.61,0.56,0.63c0.37,0.03,0.65-0.22,0.67-0.59
		C184.59,46.88,184.32,46.58,183.99,46.57"/>
	<path style="clip-path:url(#SVGID_00000041998885382143532550000015494362506404555652_);fill:#EEE2DC;" d="M178.79,47.6
		c0.25,0.28,0.69,0.27,0.92-0.02c0.02-0.03,0.05-0.06,0.07-0.09c0.13-0.22,0.1-0.45-0.08-0.73c-0.1,0.11-0.2,0.21-0.3,0.32
		C179.21,47.27,178.99,47.42,178.79,47.6"/>
	<path style="clip-path:url(#SVGID_00000041998885382143532550000015494362506404555652_);fill:#EEE2DC;" d="M170.32,43.27
		c0.04,0.07,0.09,0.13,0.16,0.19c0.07,0.05,0.15,0.1,0.24,0.13c-0.01-0.04-0.02-0.08-0.02-0.12c-0.06-0.33-0.13-0.66-0.19-0.99
		c-0.01,0.01-0.02,0.03-0.04,0.04C170.23,42.74,170.2,43.04,170.32,43.27"/>
	<path style="clip-path:url(#SVGID_00000041998885382143532550000015494362506404555652_);fill:#EEE2DC;" d="M172.64,47.3
		c0.01,0.03,0.03,0.07,0.04,0.1c0.02,0.03,0.04,0.06,0.06,0.09c0.14,0.17,0.38,0.26,0.65,0.2c-0.29-0.17-0.54-0.39-0.79-0.61
		C172.61,47.15,172.62,47.23,172.64,47.3"/>
	<path style="clip-path:url(#SVGID_00000041998885382143532550000015494362506404555652_);fill:#EEE2DC;" d="M181.35,43.64
		c0.24,0.1,0.47,0.06,0.66-0.11c0.2-0.18,0.25-0.41,0.17-0.66c-0.09-0.29-0.33-0.42-0.7-0.41c-0.07,0.38-0.14,0.76-0.22,1.13
		C181.29,43.62,181.32,43.63,181.35,43.64"/>
	<path style="clip-path:url(#SVGID_00000041998885382143532550000015494362506404555652_);fill:#EEE2DC;" d="M168.52,44.95
		c0.35,0,0.61-0.27,0.6-0.62c0-0.35-0.27-0.61-0.62-0.61c-0.34,0-0.61,0.27-0.61,0.61C167.9,44.69,168.17,44.95,168.52,44.95"/>
	<path style="clip-path:url(#SVGID_00000041998885382143532550000015494362506404555652_);fill:#EEE2DC;" d="M180.22,47.55
		c-0.35,0-0.63,0.28-0.63,0.62c0,0.34,0.28,0.61,0.62,0.61c0.35,0,0.61-0.26,0.61-0.61C180.83,47.81,180.57,47.55,180.22,47.55"/>
	<path style="clip-path:url(#SVGID_00000041998885382143532550000015494362506404555652_);fill:#EEE2DC;" d="M166.25,65.95
		c0.33-0.06,0.65-0.09,0.98-0.07c0.78,0.05,1.51,0.27,2.17,0.71c0.02,0.01,0.04,0.03,0.06,0.04c0.02,0.01,0.04,0.02,0.07,0.02
		c-0.11-0.24-0.22-0.48-0.3-0.73c-0.13-0.4-0.19-0.8-0.23-1.22c-0.05-0.47-0.09-0.94-0.11-1.42c-0.02-0.43-0.01-0.86,0.04-1.29
		c0.1-1.02,0.4-1.98,0.72-2.95c0.26-0.8,0.53-1.59,0.8-2.38c0.03-0.09,0.03-0.16-0.04-0.24c-0.29-0.31-0.57-0.64-0.85-0.96
		c-0.38-0.44-0.77-0.88-1.15-1.32c-0.26-0.3-0.53-0.6-0.79-0.9c-0.22-0.25-0.44-0.51-0.67-0.76c-0.05-0.06-0.04-0.09,0.01-0.14
		c0.15-0.14,0.45-0.17,0.68-0.07c0.25,0.11,0.43,0.31,0.6,0.52c0.43,0.52,0.83,1.05,1.19,1.61c0.39,0.59,0.73,1.21,1.04,1.84
		c0.02,0.04,0.03,0.08,0.08,0.12c0.3-0.93,0.55-1.87,0.68-2.83c0.02,0.17-0.01,0.35-0.02,0.52c-0.01,0.25-0.04,0.5-0.06,0.76
		c-0.03,0.38-0.06,0.77-0.09,1.15c-0.02,0.24-0.03,0.47-0.05,0.71c-0.03,0.38-0.06,0.75-0.09,1.13c-0.02,0.22-0.03,0.45-0.05,0.67
		c-0.03,0.39-0.06,0.79-0.09,1.18c-0.02,0.25-0.03,0.5-0.05,0.75c-0.03,0.36-0.06,0.73-0.09,1.09c-0.02,0.23-0.03,0.46-0.05,0.69
		c-0.03,0.38-0.06,0.77-0.09,1.15c-0.02,0.24-0.03,0.47-0.05,0.71c-0.03,0.38-0.06,0.75-0.09,1.13c-0.02,0.22-0.03,0.45-0.05,0.67
		c-0.03,0.39-0.06,0.79-0.09,1.18c-0.01,0.09-0.01,0.18-0.01,0.27c0.49,0.23,1,0.38,1.53,0.48c0.4,0.07,0.81,0.13,1.21,0.18
		c0.5,0.07,1,0.14,1.51,0.19c0.31,0.03,0.62,0.06,0.92,0.09c0.83,0.07,1.66,0.11,2.5,0.09c0.58-0.02,1.15-0.08,1.72-0.18
		c1.24-0.21,2.43-0.57,3.63-0.94c0.04-0.01,0.08-0.02,0.12-0.02c0.03-0.13,0.05-0.27,0.06-0.4c0.01-0.1,0.01-0.19,0.01-0.29
		c0-0.09-0.01-0.18-0.02-0.28c-0.01-0.05-0.02-0.09-0.03-0.14c-0.12-0.58-0.21-1.18-0.31-1.77c-0.11-0.62-0.22-1.23-0.33-1.85
		c-0.11-0.63-0.22-1.27-0.33-1.9c-0.09-0.53-0.19-1.06-0.28-1.59c-0.1-0.59-0.2-1.17-0.3-1.76c-0.1-0.57-0.2-1.14-0.3-1.71
		c-0.03-0.19-0.06-0.38-0.08-0.57c0.16,0.45,0.32,0.9,0.52,1.36c0.07-0.09,0.06-0.19,0.08-0.27c0.26-1.09,0.76-2.07,1.46-2.95
		c0.33-0.42,0.69-0.82,1.12-1.15c0.17-0.13,0.35-0.23,0.58-0.17c0.13,0.03,0.21,0.11,0.28,0.22c0.07,0.11,0.05,0.21-0.03,0.31
		c-0.25,0.3-0.5,0.6-0.75,0.9c-0.33,0.4-0.67,0.8-1,1.21c-0.34,0.41-0.68,0.82-1.02,1.23c-0.21,0.25-0.42,0.5-0.63,0.75
		c-0.02,0.03-0.04,0.05-0.02,0.09c0.08,0.19,0.16,0.37,0.25,0.59c0.55-1.08,1.38-1.74,2.54-1.98c0.39-0.08,1.02-0.08,1.23,0
		c-0.24,0.13-0.48,0.26-0.72,0.39c-0.98,0.52-1.96,1.05-2.94,1.56c-0.12,0.06-0.07,0.13-0.03,0.2c0.24,0.55,0.46,1.1,0.64,1.67
		c0.16,0.52,0.27,1.05,0.36,1.59c0.06,0.38,0.12,0.77,0.16,1.16c0.04,0.33,0.06,0.66,0.08,0.99c0.05,0.77,0.03,1.55,0.02,2.32
		c0,0.32-0.01,0.64,0,0.97c0.04-0.13,0.09-0.25,0.13-0.38c0.27-0.78,0.64-1.51,1.04-2.23c0.52-0.91,1.12-1.77,1.67-2.66
		c0.41-0.67,0.8-1.34,1.17-2.03c0.32-0.61,0.64-1.22,0.93-1.85c0.46-0.98,0.89-1.97,1.27-2.98c0.19-0.52,0.38-1.04,0.55-1.56
		c0.01-0.04,0.02-0.08,0.05-0.11c0.02-0.02,0.02-0.03,0.02-0.04c0-0.02-0.03-0.04-0.05-0.06c-0.01-0.01-0.02-0.02-0.02-0.04
		c-0.02-0.27-0.06-0.53-0.1-0.8c-0.02-0.13-0.02-0.26-0.05-0.38c-0.01-0.04-0.03-0.08-0.05-0.12c-0.53-0.52-1.16-0.83-1.89-0.95
		c-0.52-0.09-1.04-0.08-1.57-0.08c-0.51,0.01-1.02,0.05-1.52,0.15c-1.04,0.22-1.86,0.74-2.41,1.67c-0.22,0.36-0.41,0.73-0.63,1.09
		c-0.37,0.63-0.91,0.94-1.65,0.88c-0.11-0.01-0.2-0.04-0.28-0.12c-0.11-0.1-0.17-0.22-0.2-0.36c-0.07-0.27-0.04-0.55-0.07-0.83
		c-0.01-0.03-0.02-0.05-0.02-0.08c-0.1-0.43-0.42-0.63-0.88-0.56c-0.04,0.01-0.09,0.01-0.13,0.02c-0.46,0.13-0.93,0.26-1.4,0.34
		c-0.04,0.01-0.09,0.02-0.13,0.02c-0.04,0.32-0.06,0.63-0.06,0.95c0,0.19,0,0.38,0.01,0.57c0.01,0.24,0.04,0.47,0.07,0.71
		c0.02,0.16,0.01,0.18-0.14,0.2c-0.12,0.02-0.25,0.03-0.37,0.06c-0.06,0.01-0.08-0.01-0.09-0.06c-0.02-0.3-0.06-0.61-0.08-0.91
		c-0.02-0.35,0-0.69,0.01-1.04c0-0.13,0.02-0.26,0.02-0.4c-0.16-0.02-0.32,0.02-0.48,0.03c-0.24,0-0.49-0.01-0.73-0.03
		c-0.08-0.01-0.16-0.01-0.24-0.02c-0.02,0.47-0.04,0.93-0.06,1.4c-0.01,0.2-0.01,0.4-0.02,0.6c0,0.1-0.02,0.13-0.14,0.11
		c-0.13-0.02-0.26-0.01-0.39-0.01c-0.08,0-0.11-0.03-0.1-0.11c0.02-0.46,0.05-0.91,0.07-1.37c0.01-0.25,0-0.5,0.03-0.75
		c-0.26-0.1-0.54-0.15-0.81-0.22c-0.04-0.01-0.08-0.02-0.12-0.02c0,0.17,0,0.34,0,0.51c0,0.17-0.01,0.34-0.02,0.51
		c-0.04,0.43-0.1,0.86-0.2,1.28c-0.02,0.08-0.06,0.1-0.14,0.08c-0.12-0.04-0.25-0.06-0.37-0.09c-0.07-0.02-0.11-0.05-0.09-0.13
		c0.08-0.3,0.11-0.62,0.16-0.92c0.01-0.08,0.02-0.17,0.02-0.25c0-0.29,0.07-0.59,0.01-0.88c-0.01-0.07,0-0.12,0.09-0.12
		c0.1-0.01,0.21-0.02,0.31-0.02c-0.06-0.05-0.13-0.02-0.2-0.02c-0.04,0-0.09,0-0.13-0.01c-0.01,0-0.03-0.01-0.04-0.02
		c-0.02,0.01-0.04,0.02-0.05,0.02c-0.06,0.01-0.11,0-0.17,0.01c-0.38,0.07-0.59,0.32-0.71,0.66c-0.04,0.12-0.06,0.24-0.09,0.36
		c-0.01,0.19-0.04,0.38-0.12,0.56c-0.03,0.07-0.07,0.1-0.15,0.11c-0.5,0.07-0.96-0.04-1.39-0.3c-0.26-0.16-0.51-0.33-0.71-0.56
		c-0.19-0.12-0.33-0.29-0.49-0.45c-0.42-0.39-0.83-0.79-1.33-1.08c-0.45-0.27-0.93-0.45-1.46-0.52c-0.03,0-0.05-0.01-0.08-0.02
		c-0.48-0.04-0.95-0.02-1.42,0.04c-0.72,0.1-1.34,0.38-1.86,0.88c-0.49,0.48-0.87,1.03-1.2,1.63c-0.59,1.1-0.99,2.27-1.28,3.49
		c-0.18,0.75-0.31,1.52-0.34,2.29c0,0.25,0,0.5,0,0.75c0,0.18,0.02,0.35,0.04,0.53c0.11,0.96,0.42,1.83,1.06,2.58
		c0.27,0.32,0.5,0.67,0.57,1.09c0.09,0.54,0.13,1.08,0.17,1.62c0.05,0.77,0.1,1.54,0.22,2.31c0.09,0.54,0.23,1.07,0.48,1.56
		c0.07-0.25,0.16-0.49,0.27-0.71c0.18-0.38,0.42-0.72,0.72-1.04C164.49,66.57,165.29,66.12,166.25,65.95 M167.33,56.28
		c0.3-0.25,0.65-0.38,1.04-0.36c0.41,0.02,0.78,0.18,1.12,0.41c0.24,0.16,0.46,0.34,0.64,0.56c0.04,0.05,0.09,0.1,0.12,0.2
		c-0.29-0.07-0.57-0.14-0.84-0.2c-0.69-0.17-1.37-0.34-2.06-0.51c-0.03-0.01-0.08,0-0.08-0.04
		C167.26,56.32,167.31,56.3,167.33,56.28z M181.32,54.56c-0.09-0.29-0.16-0.59-0.16-0.91C181.21,53.95,181.26,54.25,181.32,54.56z
		 M178.32,51.71c0.11-0.01,0.22-0.02,0.35-0.03c0.08-0.02,0.12,0.02,0.13,0.13c0.04,0.37,0.09,0.73,0.14,1.1
		c0.04,0.31,0.08,0.61,0.12,0.92c0.01,0.07,0.01,0.1-0.08,0.11c-0.14,0.01-0.28,0.03-0.42,0.05c-0.07,0.01-0.1-0.01-0.11-0.09
		c-0.03-0.31-0.08-0.62-0.12-0.93c-0.05-0.36-0.09-0.72-0.14-1.08C178.17,51.75,178.18,51.73,178.32,51.71z M176.29,64.56
		c0.04-0.96,0.23-1.87,0.67-2.73c0.01,0.41-0.01,0.81-0.03,1.21c-0.01,0.2-0.01,0.41-0.02,0.62c-0.02,0.31-0.02,0.63-0.03,0.94
		c-0.03,0.6-0.05,1.2-0.08,1.8c-0.01,0.31-0.01,0.63-0.06,0.97C176.38,66.45,176.26,65.52,176.29,64.56z"/>
	<path style="clip-path:url(#SVGID_00000041998885382143532550000015494362506404555652_);fill:#EEE2DC;" d="M169.49,47.45
		c-0.35,0-0.61,0.27-0.61,0.62c0,0.34,0.29,0.62,0.62,0.61c0.34,0,0.62-0.28,0.62-0.62C170.11,47.73,169.84,47.45,169.49,47.45"/>
	<path style="clip-path:url(#SVGID_00000041998885382143532550000015494362506404555652_);fill:#EEE2DC;" d="M169.5,43.97
		c0.34,0,0.61-0.27,0.61-0.61c0-0.34-0.28-0.62-0.62-0.62c-0.34,0-0.61,0.28-0.61,0.62C168.88,43.71,169.15,43.97,169.5,43.97"/>
	<path style="clip-path:url(#SVGID_00000041998885382143532550000015494362506404555652_);fill:#EEE2DC;" d="M163.32,68.96
		c0.13-0.54,0.43-0.98,0.79-1.39c0.11-0.12,0.25-0.21,0.33-0.36c0,0,0-0.01,0.01-0.01c0,0,0,0,0,0c-0.02,0.01-0.04,0.01-0.05,0.02
		c-0.4,0.3-0.75,0.66-1.05,1.06c-0.19,0.26-0.34,0.53-0.5,0.81c0,0.01,0,0.02,0,0.02c0.05,0.01,0.06,0.06,0.07,0.1
		c0.11,0.23,0.24,0.46,0.41,0.66C163.26,69.56,163.24,69.26,163.32,68.96"/>
	<path style="clip-path:url(#SVGID_00000041998885382143532550000015494362506404555652_);fill:#EEE2DC;" d="M182.97,44.07
		c0.34,0,0.62-0.27,0.62-0.61c0-0.35-0.27-0.63-0.61-0.63c-0.35,0-0.62,0.27-0.62,0.62C182.36,43.79,182.63,44.07,182.97,44.07"/>
	<path style="clip-path:url(#SVGID_00000041998885382143532550000015494362506404555652_);fill:#EEE2DC;" d="M183.33,44.42
		c0,0.37,0.27,0.61,0.6,0.62c0.34,0.01,0.62-0.25,0.63-0.6c0.01-0.34-0.25-0.62-0.6-0.64C183.64,43.79,183.33,44.08,183.33,44.42"/>
	<path style="clip-path:url(#SVGID_00000041998885382143532550000015494362506404555652_);fill:#EEE2DC;" d="M168.76,45.72
		c0-0.35-0.28-0.63-0.62-0.63c-0.33,0-0.61,0.28-0.62,0.62c0,0.34,0.28,0.62,0.62,0.62C168.48,46.33,168.76,46.06,168.76,45.72"/>
	<path style="clip-path:url(#SVGID_00000041998885382143532550000015494362506404555652_);fill:#EEE2DC;" d="M169.13,47.1
		c0-0.35-0.27-0.63-0.61-0.63c-0.34,0-0.61,0.27-0.62,0.61c0,0.35,0.26,0.62,0.61,0.62C168.86,47.71,169.12,47.45,169.13,47.1"/>
	<path style="clip-path:url(#SVGID_00000041998885382143532550000015494362506404555652_);fill:#EEE2DC;" d="M183.71,45.82
		c0,0.34,0.27,0.6,0.62,0.6c0.34,0,0.61-0.27,0.62-0.61c0-0.34-0.28-0.62-0.62-0.62C183.98,45.19,183.71,45.46,183.71,45.82"/>
	<path style="clip-path:url(#SVGID_00000041998885382143532550000015494362506404555652_);fill:#EEE2DC;" d="M170.87,47.83
		c-0.35,0-0.61,0.27-0.61,0.63c0,0.34,0.27,0.61,0.62,0.61c0.34,0,0.61-0.28,0.62-0.61C171.49,48.11,171.21,47.83,170.87,47.83"/>
	<path style="clip-path:url(#SVGID_00000041998885382143532550000015494362506404555652_);fill:#EEE2DC;" d="M172.27,47.45
		c-0.34-0.01-0.62,0.25-0.63,0.59c-0.02,0.34,0.26,0.64,0.61,0.65c0.33,0.01,0.61-0.27,0.63-0.61
		C172.88,47.75,172.61,47.47,172.27,47.45"/>
	<path style="clip-path:url(#SVGID_00000041998885382143532550000015494362506404555652_);fill:#FED3BB;" d="M184.7,70.44
		L184.7,70.44L184.7,70.44z"/>
</g>
<g>
	<defs>
		<rect id="SVGID_00000130606908551054891570000016168158634431667894_" x="167.82" y="11.51" width="33.02" height="39.55"/>
	</defs>
	<clipPath id="SVGID_00000098936653468522249720000003486462547610054824_">
		<use xlink:href="#SVGID_00000130606908551054891570000016168158634431667894_"  style="overflow:visible;"/>
	</clipPath>
	<path style="clip-path:url(#SVGID_00000098936653468522249720000003486462547610054824_);fill:#FED3BB;" d="M178.68,17.43
		C178.68,17.43,178.68,17.43,178.68,17.43C178.68,17.43,178.68,17.43,178.68,17.43L178.68,17.43 M183.77,18.8
		C183.77,18.8,183.77,18.8,183.77,18.8C183.77,18.8,183.78,18.8,183.77,18.8L183.77,18.8z M200.84,26.13c0,0.03,0,0.06,0,0.1
		c-0.03,0.02-0.02,0.05-0.02,0.08c-0.01,0.41-0.14,0.77-0.37,1.11c-0.61,0.92-1.22,1.85-1.83,2.77c-0.12,0.18-0.19,0.38-0.23,0.59
		c-0.13,0.73-0.21,1.46-0.31,2.2c-0.12,0.86-0.23,1.72-0.34,2.58c-0.12,0.91-0.25,1.82-0.42,2.72c-0.1,0.56-0.2,1.12-0.37,1.66
		c-0.28,0.91-0.66,1.78-1.07,2.63c-0.52,1.06-1.12,2.08-1.75,3.08c-0.41,0.66-0.87,1.28-1.43,1.82c-0.09,0.09-0.2,0.16-0.27,0.26
		c-0.11,0.22-0.25,0.43-0.39,0.63c-0.08,0.25-0.24,0.42-0.43,0.58c-0.76,0.62-1.63,1.02-2.55,1.31c-0.82,0.26-1.66,0.44-2.51,0.58
		c-0.67,0.11-1.34,0.19-2.01,0.26c-0.39,0.04-0.78,0.05-1.17,0.08c-0.41,0.03-0.82,0.04-1.23,0.05c-0.59,0-1.18,0-1.77,0
		c-0.32-0.01-0.64-0.01-0.95-0.03c-0.53-0.03-1.07-0.07-1.6-0.11c-0.48-0.04-0.96-0.09-1.44-0.16c-0.64-0.08-1.27-0.18-1.9-0.31
		c-0.66-0.14-1.33-0.27-1.99-0.45c-0.01,0-0.03-0.01-0.04-0.02c-0.01-0.04-0.04-0.03-0.07-0.03l0,0c-0.27-0.12-0.55-0.19-0.83-0.29
		c-0.15-0.05-0.29-0.13-0.45-0.14c-0.24-0.09-0.48-0.17-0.72-0.27c-0.54-0.22-1.06-0.47-1.52-0.83c-0.41-0.32-0.75-0.69-0.92-1.2
		c-0.06-0.3-0.08-0.61-0.01-0.91c0.13-0.54,0.43-0.98,0.79-1.39c0.11-0.13,0.26-0.22,0.34-0.37c0.02,0,0.04,0,0.05-0.03v0
		c0.01-0.01,0.02-0.02,0.03-0.02l0,0c0.01-0.01,0.02-0.02,0.03-0.02c0.95-0.69,2.01-0.93,3.17-0.81c0.68,0.07,1.32,0.28,1.91,0.63
		c0.14,0.09,0.26,0.2,0.36,0.33c0.03,0.03,0.12,0.06,0.17,0.04c0.49,0.23,1,0.38,1.53,0.48c0.4,0.07,0.81,0.13,1.21,0.18
		c0.5,0.07,1,0.14,1.51,0.19c0.31,0.03,0.62,0.06,0.92,0.09c0.83,0.07,1.66,0.11,2.5,0.09c0.58-0.02,1.15-0.08,1.72-0.18
		c1.24-0.21,2.43-0.57,3.63-0.94c0.04-0.01,0.08-0.02,0.12-0.02c-0.03,0.42-0.02,0.83,0.04,1.24c0.09,0.53,0.27,1.03,0.56,1.48
		c0.03,0.05,0.07,0.11,0.1,0.16c0.01,0.01,0.02,0.02,0.03,0.02l0,0c0,0.04,0,0.07,0.05,0.07l0,0c0.15,0.1,0.24,0.25,0.38,0.37
		c0.56,0.5,1.21,0.71,1.95,0.64c0.36-0.04,0.7-0.18,1-0.4c-0.04-0.03-0.06,0-0.08,0.01c-0.5,0.29-1.02,0.34-1.58,0.23
		c-0.01,0-0.03-0.01-0.04-0.02c0,0,0,0,0,0c-0.01-0.01-0.02-0.01-0.02,0c-0.34-0.09-0.64-0.24-0.9-0.48
		c-0.01-0.01-0.02-0.02-0.02-0.03h0c-0.01-0.01-0.02-0.02-0.02-0.02h0c-0.01-0.01-0.02-0.02-0.02-0.02
		c-0.01-0.02-0.02-0.03-0.04-0.03c-0.26-0.2-0.44-0.47-0.59-0.75c-0.25-0.47-0.39-0.98-0.43-1.52c-0.04-0.52,0.03-1.03,0.13-1.54
		c0.01-0.04,0.01-0.08,0.04-0.11c0-0.01,0-0.01,0-0.02c0.03-0.03,0.02-0.07,0.02-0.1c0-0.02,0-0.05,0.01-0.07
		c0.17-0.58,0.39-1.14,0.65-1.69c0.42-0.86,0.92-1.66,1.44-2.47c0.84-1.31,1.63-2.66,2.31-4.07c0.52-1.1,0.99-2.22,1.39-3.37
		c0.16-0.47,0.29-0.96,0.48-1.42c0.15-0.38,0.2-0.78,0.27-1.17c0.06-0.07-0.04-0.09-0.04-0.14c-0.02-0.27-0.06-0.53-0.1-0.8
		c-0.03-0.17-0.02-0.35-0.1-0.5c0.04-0.13-0.02-0.26-0.03-0.39c-0.07-0.5-0.17-0.99-0.22-1.49c-0.05-0.44,0.01-0.88,0.13-1.3
		c0.01-0.04,0.03-0.08,0.05-0.12c0.18-0.37,0.66-0.42,0.92-0.1c0.21,0.26,0.28,0.58,0.35,0.89c0.08,0.34,0.12,0.69,0.3,0.99
		c0.2,0.33,0.46,0.6,0.78,0.82c0.11,0.07,0.24,0.07,0.35,0.04c0.35-0.12,0.66-0.31,0.84-0.65c0.12-0.22,0.16-0.45,0.11-0.7
		c-0.06-0.28-0.11-0.56-0.17-0.84c-0.01-0.03-0.01-0.06-0.03-0.09c-0.04-0.11-0.07-0.24-0.21-0.25c-0.14-0.02-0.23,0.08-0.32,0.17
		c-0.07,0.08-0.11,0.19-0.15,0.29c-0.04,0.1-0.08,0.2-0.13,0.3c-0.14,0.24-0.45,0.26-0.62,0.04c-0.12-0.16-0.18-0.34-0.19-0.54
		c-0.01-0.23,0-0.45,0.04-0.68c0.04-0.21-0.03-0.31-0.25-0.33c-0.26-0.03-0.51-0.05-0.76-0.12c-0.29-0.08-0.57-0.19-0.75-0.46
		c-0.18-0.28-0.11-0.54,0.19-0.68c0.28-0.13,0.58-0.16,0.87-0.05c0.41,0.16,0.81,0.22,1.24,0.08c0.28-0.09,0.58-0.03,0.87,0.06
		c0.03,0.01,0.07,0.02,0.1,0.03c0,0,0.01,0,0.02-0.01c-0.08-0.14-0.17-0.28-0.25-0.42c-0.19-0.33-0.36-0.68-0.41-1.07
		c-0.03-0.24-0.03-0.48,0.04-0.71c0.13-0.41,0.48-0.37,0.71-0.19c0.2,0.16,0.35,0.37,0.45,0.61c0.39,0.88,0.95,1.66,1.43,2.49
		c0.34,0.59,0.64,1.2,0.76,1.87C200.81,25.8,200.8,25.97,200.84,26.13z M195.02,29.46c0-0.01-0.01-0.01-0.01-0.02
		c0,0.01-0.01,0.01-0.01,0.02c0,0.01,0.01,0.01,0.01,0.02C195.01,29.47,195.02,29.47,195.02,29.46z M189.3,47.94
		C189.3,47.94,189.3,47.94,189.3,47.94L189.3,47.94z M175.1,19.97c-0.1-0.74-0.14-1.48-0.12-2.22c0.03-1.13,0.15-2.25,0.55-3.31
		c0.41-1.07,1.07-1.92,2.12-2.43c0.41-0.2,0.85-0.33,1.29-0.42c0.02,0,0.05,0,0.08,0c-0.16,0.41-0.17,0.81-0.02,1.21
		c0.43,1.13,1.88,1.4,2.71,0.5c0.06-0.06,0.08-0.07,0.14,0c0.74,0.89,2.16,0.73,2.68-0.32c0.06-0.11,0.08-0.09,0.15-0.02
		c0.54,0.6,0.89,1.31,1.12,2.08c0.23,0.77,0.33,1.57,0.37,2.37c0.04,0.82,0.01,1.63-0.1,2.44c0,0.04,0,0.07-0.01,0.11
		c-0.07,0.38-0.14,0.76-0.22,1.13c-0.12,0.4-0.23,0.79-0.38,1.18c-0.29,0.72-0.66,1.39-1.18,1.98c-0.1,0.11-0.2,0.21-0.3,0.32
		c-0.19,0.19-0.41,0.34-0.61,0.52c-0.56,0.32-1.17,0.53-1.79,0.72c-0.34,0.1-0.68,0.18-1.03,0.2c-0.43,0.02-0.85-0.08-1.25-0.23
		c-0.39-0.13-0.75-0.32-1.1-0.53c-0.03-0.02-0.06-0.07-0.11-0.04c-0.01,0.01-0.01,0.02-0.02,0.02c-0.03-0.02-0.06-0.04-0.09-0.06
		c-0.29-0.17-0.54-0.39-0.79-0.61c-0.52-0.52-0.94-1.11-1.27-1.77c-0.26-0.53-0.46-1.08-0.6-1.65c-0.01-0.02-0.02-0.05-0.02-0.07
		c-0.01-0.04-0.02-0.08-0.02-0.12C175.23,20.63,175.17,20.3,175.1,19.97z M179.55,18c-0.14-0.13-0.28-0.24-0.42-0.36
		c0.08-0.26,0.11-0.52,0.15-0.79c-0.14,0.21-0.29,0.41-0.43,0.62c-0.06-0.01-0.1-0.06-0.16-0.05c-0.01-0.03-0.04-0.02-0.06-0.03
		c-0.04-0.02-0.08-0.04-0.12-0.05c0.02-0.07,0.14,0.08,0.12-0.07c-0.04-0.28-0.09-0.55-0.15-0.86c-0.1,0.3-0.19,0.57-0.28,0.84
		c-0.1-0.01-0.2-0.02-0.3-0.03c-0.1-0.25-0.2-0.51-0.29-0.76c-0.01,0-0.01,0-0.02,0c-0.04,0.26-0.08,0.52-0.12,0.79
		c-0.09,0.02-0.17,0.04-0.26,0.05c-0.14-0.26-0.28-0.52-0.42-0.78c-0.01,0.32-0.03,0.64,0,0.95c-0.05,0.04-0.12,0.07-0.18,0.1
		c-0.18-0.22-0.37-0.44-0.55-0.66c-0.01,0-0.01,0.01-0.02,0.01c0.1,0.28,0.19,0.55,0.29,0.83c-0.06,0.11-0.18,0.16-0.25,0.26
		c-0.05,0.07-0.05,0.11,0,0.18c0.08,0.11,0.17,0.19,0.28,0.26c0.68,0.42,1.41,0.53,2.19,0.34c0.39-0.09,0.71-0.29,0.98-0.59
		C179.6,18.14,179.63,18.08,179.55,18z M184.96,20.51c0.02-0.68-0.54-1.24-1.21-1.25c-0.69-0.01-1.26,0.6-1.22,1.2
		c-0.03,0.69,0.52,1.24,1.21,1.24C184.42,21.71,184.95,21.19,184.96,20.51z M181.87,17.61c-0.11,0.11-0.25,0.19-0.36,0.3
		c-0.18,0.18-0.18,0.21,0.01,0.39c0.25,0.24,0.56,0.37,0.89,0.46c0.38,0.11,0.76,0.15,1.15,0.09c0.04,0.02,0.07-0.02,0.11-0.02
		c0.04-0.01,0.08,0.02,0.11-0.02c0.47-0.06,0.85-0.3,1.14-0.67c0.04-0.05,0-0.08-0.03-0.11c-0.1-0.12-0.24-0.19-0.34-0.32
		c0.1-0.21,0.21-0.43,0.31-0.64c-0.04-0.01-0.06,0.03-0.09,0.05c-0.17,0.14-0.34,0.28-0.52,0.41c-0.07-0.01-0.12-0.08-0.2-0.07
		l0.01,0c-0.01-0.03-0.03-0.03-0.05-0.03l0,0c-0.01-0.01-0.01-0.02-0.02-0.03c0.03-0.29,0.07-0.57,0.1-0.86
		c-0.18,0.22-0.32,0.44-0.47,0.67c-0.03,0.05-0.05,0.09-0.12,0.07c-0.04-0.02-0.09,0-0.12-0.04c-0.07-0.3-0.14-0.6-0.2-0.9
		c-0.01,0-0.01,0-0.02,0c-0.07,0.3-0.14,0.6-0.21,0.9c-0.05,0.01-0.1,0.03-0.16,0.02c-0.09-0.23-0.19-0.46-0.28-0.69
		c-0.01,0-0.02,0-0.02,0.01c-0.02,0.26-0.04,0.52-0.06,0.78c-0.06,0.02-0.11,0.04-0.17,0.06c-0.14-0.24-0.28-0.48-0.42-0.73
		c-0.01,0-0.01,0.01-0.02,0.01C181.83,17,181.85,17.3,181.87,17.61z M184.87,17.05C184.88,17.05,184.87,17.05,184.87,17.05
		C184.87,17.05,184.87,17.05,184.87,17.05C184.87,17.06,184.87,17.05,184.87,17.05z M181.29,15.58c0.02,0.05,0.04,0.1,0.07,0.16
		c0.53-0.44,1.11-0.73,1.8-0.74c0.71-0.01,1.29,0.26,1.77,0.79c0.05-0.11,0.09-0.22,0.13-0.32c0.03-0.06,0.01-0.1-0.03-0.14
		c-0.15-0.17-0.33-0.31-0.53-0.42c-0.96-0.55-2.25-0.42-3.14,0.32C181.21,15.37,181.21,15.37,181.29,15.58z M179.93,21.21
		c0.15,0,0.29,0,0.44,0c0.15,0,0.3-0.01,0.45,0c0.1,0.01,0.14-0.02,0.12-0.13c-0.05-0.39-0.08-0.78-0.13-1.18
		c-0.07-0.62-0.14-1.25-0.21-1.87c-0.01-0.08-0.03-0.1-0.11-0.1c-0.12-0.01-0.16,0.04-0.16,0.15c0,0.07-0.02,0.14-0.03,0.2
		c-0.15,0.94-0.31,1.88-0.46,2.82C179.82,21.2,179.85,21.21,179.93,21.21z M179.91,22.92c0.35,0.27,0.74,0.39,1.26,0.4
		c0.08,0.01,0.22-0.02,0.37-0.05c0.42-0.11,0.77-0.32,1.04-0.67c0.05-0.07,0.05-0.11-0.02-0.16c-0.15-0.1-0.29-0.2-0.46-0.27
		c-0.3-0.13-0.47-0.1-0.7,0.13c-0.11,0.11-0.24,0.12-0.38,0.07c-0.06-0.02-0.12-0.05-0.18-0.08c-0.19-0.1-0.36-0.08-0.53,0.06
		c-0.14,0.12-0.28,0.24-0.42,0.37C179.8,22.81,179.83,22.85,179.91,22.92z M175.87,15.66c0.02,0.04,0.03,0.08,0.05,0.13
		c0.02-0.01,0.02-0.01,0.02-0.01c0.02-0.02,0.04-0.04,0.06-0.06c0.44-0.47,0.97-0.7,1.61-0.71c0.63-0.01,1.17,0.21,1.67,0.58
		c0.07,0.05,0.14,0.16,0.21,0.14c0.06-0.02,0.07-0.15,0.11-0.23c0.04-0.08,0.02-0.13-0.05-0.18c-0.64-0.56-1.39-0.79-2.23-0.71
		c-0.51,0.05-0.96,0.23-1.35,0.57C175.76,15.37,175.76,15.37,175.87,15.66z M175.79,20.54c0,0.69,0.58,1.22,1.19,1.23
		c0.69,0.02,1.25-0.55,1.25-1.21c0-0.65-0.54-1.25-1.22-1.21C176.34,19.3,175.79,19.92,175.79,20.54z M169.04,44.69
		C169.04,44.69,169.04,44.69,169.04,44.69C169.04,44.69,169.04,44.69,169.04,44.69L169.04,44.69z M189.26,47.92
		C189.26,47.92,189.26,47.91,189.26,47.92L189.26,47.92z M177.73,28.96c0.12-0.71,0.24-1.42,0.36-2.13
		c0.08-0.46,0.16-0.91,0.24-1.38c0.08,0.06,0.15,0.12,0.22,0.17c0.6,0.44,1.25,0.73,2,0.72c0.5-0.01,0.97-0.17,1.43-0.36
		c0.31-0.13,0.61-0.29,0.91-0.48c0.19,1.18,0.38,2.34,0.57,3.5c-0.46,0.13-0.93,0.26-1.4,0.34c-0.04,0.01-0.09,0.02-0.13,0.02
		c-0.13-0.07-0.28-0.04-0.42-0.07c-0.12-0.03-0.21,0-0.21,0.14c-0.16-0.02-0.32,0.02-0.48,0.03c-0.33,0-0.65-0.01-0.97-0.05
		c0.01-0.08-0.02-0.12-0.12-0.12c-0.16,0.01-0.33,0-0.49,0c-0.26-0.1-0.54-0.15-0.81-0.22c-0.04-0.01-0.08-0.02-0.12-0.02
		c-0.07-0.05-0.14-0.01-0.22-0.03c-0.06-0.05-0.13-0.02-0.2-0.02C177.85,28.98,177.78,28.99,177.73,28.96z"/>
</g>
<g>
	<defs>
		<rect id="SVGID_00000047020801954980976000000008630899569871762830_" x="153.51" y="19.23" width="36" height="45"/>
	</defs>
	<clipPath id="SVGID_00000109710437811600388740000012341982394988246409_">
		<use xlink:href="#SVGID_00000047020801954980976000000008630899569871762830_"  style="overflow:visible;"/>
	</clipPath>
	<path style="clip-path:url(#SVGID_00000109710437811600388740000012341982394988246409_);fill:#F3B49C;" d="M172.38,34.88
		c0.67,0,1.2-0.52,1.22-1.2c0.02-0.68-0.54-1.24-1.21-1.25c-0.69-0.01-1.26,0.6-1.22,1.2C171.15,34.33,171.69,34.88,172.38,34.88
		 M164.43,33.71c0,0.69,0.58,1.22,1.19,1.23c0.69,0.02,1.25-0.55,1.25-1.21c0-0.65-0.54-1.25-1.22-1.21
		C164.98,32.47,164.43,33.1,164.43,33.71z M176.53,57.87c0.07-0.37,0.1-0.73,0.02-1.11c-0.12-0.58-0.21-1.18-0.31-1.77
		c-0.11-0.62-0.22-1.23-0.33-1.85c-0.11-0.63-0.22-1.27-0.33-1.9c-0.09-0.53-0.19-1.06-0.28-1.59c-0.1-0.59-0.2-1.17-0.3-1.76
		c-0.1-0.57-0.2-1.14-0.3-1.71c-0.03-0.19-0.06-0.38-0.08-0.57c0.16,0.45,0.32,0.9,0.52,1.36c0.07-0.09,0.06-0.19,0.08-0.27
		c0.26-1.09,0.76-2.07,1.46-2.95c0.33-0.42,0.69-0.82,1.12-1.15c0.17-0.13,0.35-0.23,0.58-0.17c0.13,0.03,0.21,0.11,0.28,0.22
		c0.07,0.11,0.05,0.21-0.03,0.31c-0.25,0.3-0.5,0.6-0.75,0.9c-0.33,0.4-0.67,0.8-1,1.21c-0.34,0.41-0.68,0.82-1.02,1.23
		c-0.21,0.25-0.42,0.5-0.63,0.75c-0.02,0.03-0.04,0.05-0.02,0.09c0.08,0.19,0.16,0.37,0.25,0.59c0.55-1.08,1.38-1.74,2.54-1.98
		c0.39-0.08,1.02-0.08,1.23,0c-0.24,0.13-0.48,0.26-0.72,0.39c-0.98,0.52-1.96,1.05-2.94,1.56c-0.12,0.06-0.07,0.13-0.03,0.2
		c0.24,0.55,0.46,1.1,0.64,1.67c0.16,0.52,0.27,1.05,0.36,1.59c0.06,0.38,0.12,0.77,0.16,1.16c0.04,0.33,0.06,0.66,0.08,0.99
		c0.05,0.77,0.03,1.55,0.02,2.32c0,0.32-0.01,0.64,0,0.97c0.04-0.13,0.09-0.25,0.13-0.38c0.27-0.78,0.64-1.52,1.04-2.23
		c0.52-0.91,1.12-1.77,1.67-2.66c0.41-0.67,0.8-1.34,1.17-2.03c0.32-0.61,0.64-1.22,0.93-1.85c0.46-0.98,0.89-1.97,1.27-2.98
		c0.19-0.52,0.38-1.04,0.55-1.56c0.01-0.04,0.02-0.08,0.05-0.11c-0.07,0.39-0.13,0.79-0.27,1.17c-0.18,0.47-0.31,0.95-0.48,1.42
		c-0.4,1.15-0.87,2.27-1.39,3.37c-0.67,1.41-1.46,2.76-2.31,4.07c-0.51,0.8-1.02,1.61-1.44,2.47c-0.26,0.54-0.48,1.11-0.65,1.69
		c-0.01,0.02-0.01,0.05-0.01,0.07c-0.03,0.03-0.02,0.06-0.02,0.1c0,0.01,0,0.01,0,0.02c-0.03,0.03-0.04,0.07-0.04,0.11
		c-0.1,0.51-0.17,1.02-0.13,1.54c0.04,0.54,0.18,1.05,0.43,1.52c0.15,0.28,0.34,0.55,0.59,0.75c0,0,0,0,0,0
		c0.01,0.02,0.02,0.03,0.05,0.03l0,0c0.01,0.01,0.02,0.02,0.02,0.02h0c0.01,0.01,0.02,0.02,0.02,0.02h0
		c0.01,0.01,0.02,0.02,0.02,0.03c0.26,0.24,0.56,0.39,0.9,0.48l0.01,0l0.01,0l0,0c0.01,0.01,0.03,0.02,0.04,0.02
		c0.55,0.11,1.08,0.06,1.58-0.23c0.02-0.01,0.04-0.05,0.08-0.01c-0.3,0.23-0.63,0.37-1,0.4c-0.74,0.07-1.39-0.14-1.95-0.64
		c-0.13-0.12-0.23-0.27-0.38-0.37l0,0c0-0.04-0.02-0.06-0.05-0.07l0,0c-0.01-0.01-0.02-0.02-0.03-0.02
		c-0.03-0.05-0.06-0.11-0.1-0.16c-0.29-0.46-0.47-0.95-0.56-1.48C176.51,58.69,176.51,58.28,176.53,57.87z M163.4,57.72
		c0.03-0.39,0.06-0.79,0.09-1.18c0.02-0.22,0.03-0.45,0.05-0.67c0.03-0.38,0.06-0.75,0.09-1.13c0.02-0.24,0.03-0.47,0.05-0.71
		c0.03-0.38,0.06-0.77,0.09-1.15c0.02-0.23,0.03-0.46,0.05-0.69c0.03-0.36,0.06-0.73,0.09-1.09c0.02-0.25,0.03-0.5,0.05-0.75
		c0.03-0.39,0.06-0.79,0.09-1.18c0.02-0.22,0.03-0.45,0.05-0.67c0.03-0.38,0.06-0.75,0.09-1.13c0.02-0.24,0.03-0.47,0.05-0.71
		c0.03-0.38,0.06-0.77,0.09-1.15c0.02-0.25,0.05-0.5,0.06-0.76c0.01-0.17,0.04-0.35,0.02-0.52c-0.13,0.97-0.39,1.9-0.68,2.83
		c-0.05-0.04-0.06-0.08-0.08-0.12c-0.31-0.64-0.66-1.25-1.04-1.84c-0.36-0.56-0.77-1.1-1.19-1.61c-0.17-0.21-0.35-0.41-0.6-0.52
		c-0.22-0.1-0.53-0.07-0.68,0.07c-0.05,0.05-0.07,0.08-0.01,0.14c0.23,0.25,0.45,0.51,0.67,0.76c0.26,0.3,0.53,0.6,0.79,0.9
		c0.39,0.44,0.77,0.88,1.15,1.32c0.28,0.32,0.56,0.65,0.85,0.96c0.07,0.08,0.07,0.14,0.04,0.24c-0.27,0.79-0.54,1.59-0.8,2.38
		c-0.32,0.96-0.62,1.93-0.72,2.95c-0.04,0.43-0.06,0.86-0.04,1.29c0.02,0.47,0.07,0.95,0.11,1.42c0.04,0.41,0.11,0.82,0.23,1.22
		c0.08,0.25,0.2,0.49,0.31,0.73c0,0,0.01,0,0.01,0c0,0,0,0,0,0.01c0,0-0.01-0.01-0.01-0.01c-0.05,0-0.09-0.04-0.13-0.07
		c-0.66-0.43-1.39-0.65-2.17-0.71c-0.33-0.02-0.66,0.01-0.98,0.07c-0.96,0.17-1.77,0.62-2.43,1.33c-0.47,0.5-0.8,1.09-0.98,1.75
		c0,0.02,0,0.03,0.01,0.05c0.15-0.28,0.31-0.56,0.5-0.81c0.3-0.4,0.64-0.76,1.05-1.06c0.01-0.01,0.04-0.01,0.05-0.02l0,0
		c0.01-0.02,0.03-0.03,0.05-0.03v0c0.01-0.01,0.02-0.02,0.03-0.02l0,0c0.01-0.01,0.02-0.02,0.03-0.02c0.95-0.69,2.01-0.93,3.17-0.81
		c0.68,0.07,1.32,0.28,1.91,0.63c0.14,0.09,0.26,0.2,0.36,0.33c0.03,0.03,0.12,0.06,0.17,0.04C163.39,57.9,163.39,57.81,163.4,57.72
		z M169.52,55.24c-0.04,0.96,0.09,1.89,0.45,2.81c0.05-0.34,0.04-0.66,0.06-0.97c0.03-0.6,0.05-1.2,0.08-1.8
		c0.02-0.31,0.01-0.63,0.03-0.94c0.02-0.21,0.01-0.41,0.02-0.62c0.03-0.4,0.05-0.8,0.03-1.21
		C169.75,53.37,169.56,54.28,169.52,55.24z M163.37,47.58c-0.18-0.23-0.4-0.4-0.64-0.56c-0.34-0.23-0.71-0.39-1.12-0.41
		c-0.39-0.02-0.74,0.11-1.04,0.36c-0.02,0.02-0.07,0.03-0.06,0.07c0.01,0.04,0.05,0.03,0.08,0.04c0.69,0.17,1.37,0.34,2.06,0.51
		c0.27,0.07,0.54,0.13,0.84,0.2C163.46,47.68,163.41,47.63,163.37,47.58z M169.92,43c-0.01,0.35-0.03,0.69-0.01,1.04
		c0.02,0.3,0.05,0.61,0.08,0.91c0,0.06,0.03,0.07,0.09,0.06c0.12-0.02,0.25-0.04,0.37-0.06c0.15-0.02,0.16-0.04,0.14-0.2
		c-0.03-0.23-0.06-0.47-0.07-0.71c-0.01-0.51-0.02-1.02,0.05-1.52c-0.13-0.07-0.28-0.04-0.42-0.07c-0.12-0.03-0.21,0-0.21,0.14
		C169.93,42.73,169.92,42.86,169.92,43z M166.43,42.21c-0.1,0.01-0.11,0.05-0.09,0.12c0.05,0.29-0.01,0.59-0.01,0.88
		c0,0.08-0.01,0.17-0.02,0.25c-0.05,0.31-0.08,0.62-0.16,0.92c-0.02,0.07,0.02,0.11,0.09,0.13c0.13,0.03,0.25,0.06,0.37,0.09
		c0.08,0.02,0.12,0,0.14-0.08c0.1-0.42,0.16-0.85,0.2-1.28c0.03-0.34,0.03-0.68,0.02-1.03c-0.07-0.05-0.14-0.01-0.22-0.03
		C166.63,42.19,166.53,42.2,166.43,42.21z M171.55,42.39c-0.14,0.02-0.15,0.04-0.13,0.18c0.05,0.36,0.09,0.72,0.14,1.08
		c0.04,0.31,0.08,0.62,0.12,0.93c0.01,0.08,0.04,0.09,0.11,0.09c0.14-0.02,0.28-0.04,0.42-0.05c0.08,0,0.09-0.04,0.08-0.11
		c-0.04-0.31-0.08-0.61-0.12-0.92c-0.05-0.37-0.1-0.73-0.14-1.1c-0.01-0.11-0.05-0.15-0.13-0.13
		C171.77,42.37,171.66,42.37,171.55,42.39z M167.85,43.2c-0.02,0.46-0.04,0.92-0.07,1.37c0,0.08,0.02,0.11,0.1,0.11
		c0.13,0,0.26-0.01,0.39,0.01c0.11,0.02,0.13-0.02,0.14-0.11c0-0.2,0.01-0.4,0.02-0.6c0.02-0.47,0.04-0.93,0.06-1.4
		c0.01-0.08-0.02-0.12-0.12-0.12c-0.16,0.01-0.33,0-0.49,0C167.85,42.7,167.86,42.95,167.85,43.2z M159.95,30.97
		c-0.16,0.06-0.31,0.15-0.46,0.23c-0.17,0.09-0.35,0.15-0.54,0.15c-0.75,0.01-1.36-0.6-1.37-1.38c-0.01-0.64,0.26-1.14,0.73-1.55
		c0.1-0.09,0.21-0.17,0.32-0.23c0.06-0.03,0.15-0.02,0.16-0.12c-0.73,0.27-1.49,1.04-1.38,2.09c0.08,0.72,0.54,1.23,1.22,1.38
		c0.16,0.03,0.32,0.04,0.5,0.01c-0.07,0.11-0.13,0.19-0.17,0.29c-0.17,0.32-0.19,0.64,0.04,0.95c0.21,0.28,0.5,0.42,0.84,0.44
		c0.5,0.03,0.91-0.18,1.31-0.46c-0.01-0.01-0.01-0.01-0.02-0.02c-0.2,0.09-0.4,0.2-0.61,0.26c-0.4,0.13-0.79,0.14-1.16-0.11
		c-0.35-0.24-0.44-0.63-0.22-1c0.12-0.2,0.28-0.37,0.44-0.54C159.71,31.23,159.86,31.12,159.95,30.97L159.95,30.97z M168.27,24.18
		c-0.03-0.03-0.06-0.07-0.09-0.1c-0.2-0.24-0.23-0.6-0.07-0.83c0.17-0.26,0.49-0.36,0.8-0.26c0.04,0.01,0.09,0.04,0.15,0.02
		c-0.17-0.33-0.18-0.65,0.07-0.94c0.24-0.28,0.57-0.32,0.93-0.22c-0.04-0.06-0.09-0.07-0.13-0.09c-0.55-0.22-1.16,0.17-1.18,0.77
		c-0.01,0.19-0.01,0.19-0.19,0.21c-0.53,0.08-0.84,0.61-0.62,1.09C168,23.99,168.08,24.14,168.27,24.18L168.27,24.18z M170.17,36.44
		c0.42-0.11,0.77-0.32,1.04-0.67c0.05-0.07,0.05-0.11-0.02-0.16c-0.15-0.1-0.29-0.2-0.46-0.27c-0.3-0.13-0.47-0.1-0.7,0.13
		c-0.11,0.11-0.24,0.12-0.38,0.07c-0.06-0.02-0.12-0.05-0.18-0.08c-0.19-0.1-0.36-0.08-0.53,0.06c-0.14,0.12-0.28,0.24-0.42,0.37
		c-0.1,0.09-0.06,0.13,0.02,0.2c0.35,0.27,0.74,0.39,1.26,0.4C169.88,36.5,170.02,36.48,170.17,36.44z M169.45,34.39
		c0.1,0.01,0.14-0.02,0.12-0.13c-0.05-0.39-0.08-0.78-0.13-1.18c-0.07-0.62-0.14-1.25-0.21-1.87c-0.01-0.08-0.03-0.1-0.11-0.1
		c-0.12-0.01-0.16,0.04-0.16,0.15c0,0.07-0.02,0.14-0.03,0.2c-0.15,0.94-0.31,1.88-0.46,2.82c-0.02,0.1,0.02,0.11,0.09,0.1
		c0.15,0,0.29,0,0.44,0C169.16,34.38,169.3,34.38,169.45,34.39z"/>
</g>
<g>
	<defs>
		<rect id="SVGID_00000094592982397283255760000009015297557767573428_" x="149.02" y="19.23" width="8.99" height="45"/>
	</defs>
	<clipPath id="SVGID_00000107554504571812366330000017676333153931846814_">
		<use xlink:href="#SVGID_00000094592982397283255760000009015297557767573428_"  style="overflow:visible;"/>
	</clipPath>
	<path style="clip-path:url(#SVGID_00000107554504571812366330000017676333153931846814_);fill:#FFFFFF;" d="M153.37,64.42
		c0-0.01,0-0.01,0-0.02c0.59,0,1.18,0,1.77,0c0,0.01,0,0.01,0,0.02C154.55,64.42,153.96,64.42,153.37,64.42 M150.42,19.25
		c0-0.01,0-0.01,0-0.02c-0.12,0-0.24,0-0.36,0c0,0.01,0,0.01,0,0.02C150.17,19.25,150.3,19.25,150.42,19.25z M149.81,30.65
		c-0.05,0.04-0.12,0.07-0.18,0.1c-0.09,0.06-0.17,0.14-0.28,0.18c-0.06,0.11-0.18,0.16-0.25,0.26c-0.05,0.07-0.05,0.11,0,0.18
		c0.08,0.11,0.17,0.19,0.28,0.26c0.68,0.42,1.41,0.53,2.19,0.34c0.39-0.09,0.71-0.29,0.98-0.59c0.06-0.07,0.09-0.12,0.01-0.2
		c-0.14-0.13-0.28-0.24-0.42-0.36c-0.09-0.06-0.19-0.12-0.28-0.17c-0.06-0.01-0.1-0.06-0.16-0.05c0.15,0.15,0.28,0.3,0.31,0.53
		c0.06,0.42-0.28,0.83-0.72,0.87c-0.43,0.04-0.84-0.3-0.85-0.73c-0.02-0.48,0.25-0.78,0.73-0.82c0.02,0,0.05,0.01,0.06-0.03
		c-0.1-0.01-0.2-0.02-0.3-0.03c-0.15,0.01-0.29,0.02-0.44,0.03c-0.09,0.02-0.17,0.04-0.26,0.05
		C150.09,30.54,149.95,30.6,149.81,30.65z M156.4,30.41c-0.15,0-0.29,0-0.44,0c-0.05,0.01-0.1,0.03-0.16,0.02
		c-0.12,0.03-0.25,0.06-0.37,0.09c-0.06,0.02-0.11,0.04-0.17,0.06c-0.13,0.07-0.26,0.14-0.39,0.21c-0.11,0.11-0.25,0.19-0.36,0.3
		c-0.18,0.18-0.18,0.21,0.01,0.39c0.25,0.24,0.56,0.37,0.89,0.46c0.38,0.11,0.76,0.15,1.15,0.09c-0.02-0.03-0.05-0.02-0.08-0.02
		c-0.5-0.04-0.84-0.47-0.74-0.97c0.06-0.28,0.27-0.59,0.77-0.59C156.49,30.42,156.44,30.45,156.4,30.41z M157.94,31.31
		c0.04-0.05,0-0.08-0.03-0.11c-0.1-0.12-0.24-0.19-0.34-0.32c-0.11-0.04-0.2-0.11-0.29-0.18c-0.07-0.01-0.12-0.08-0.2-0.07
		c-0.01,0.04,0.02,0.05,0.04,0.06c0.22,0.23,0.27,0.49,0.17,0.79c-0.08,0.25-0.27,0.39-0.5,0.49
		C157.27,31.92,157.64,31.68,157.94,31.31z M156.79,31.98c-0.04,0-0.07,0-0.11,0.03C156.72,32,156.76,32.02,156.79,31.98z
		 M157.03,30.6c0.01,0.03,0.02,0.05,0.05,0.03C157.07,30.6,157.05,30.6,157.03,30.6z M157.01,30.57c-0.01,0.01-0.01,0.01-0.02,0.02
		c0.01,0,0.03,0.01,0.04,0.01C157.03,30.6,157.02,30.59,157.01,30.57z M151.64,30.58c0.02,0.02,0.03,0.03,0.06,0.03
		C151.69,30.58,151.66,30.58,151.64,30.58z"/>
</g>
<g>
	<defs>
		<rect id="SVGID_00000165236667057024579230000007617052836189177736_" x="145.62" y="6.05" width="36" height="45"/>
	</defs>
	<clipPath id="SVGID_00000149348454645346413060000014503424052780348604_">
		<use xlink:href="#SVGID_00000165236667057024579230000007617052836189177736_"  style="overflow:visible;"/>
	</clipPath>
	<path style="clip-path:url(#SVGID_00000149348454645346413060000014503424052780348604_);fill:#524347;" d="M158.48,28.96
		c-0.07,0.04-0.15,0.02-0.22,0.03c-0.38,0.07-0.59,0.32-0.71,0.66c-0.04,0.12-0.06,0.24-0.09,0.36c-0.22-0.18-0.42-0.38-0.6-0.6
		c-0.03-0.03-0.05-0.07-0.1-0.03c-0.5,0.33-1.07,0.46-1.66,0.45c-0.19-0.12-0.33-0.29-0.49-0.45c-0.42-0.39-0.83-0.79-1.33-1.08
		c-0.45-0.27-0.93-0.45-1.46-0.52c-0.03,0-0.05-0.01-0.08-0.02c-0.2-0.36-0.36-0.73-0.45-1.13c-0.01-0.06-0.04-0.08-0.1-0.08
		c-1.73-0.14-3.32-1.6-3.65-3.41c-0.07-0.38-0.07-0.77,0-1.16c0.01-0.08,0-0.12-0.06-0.17c-0.54-0.48-0.9-1.07-0.98-1.8
		c-0.14-1.16,0.3-2.07,1.27-2.73c0.09-0.06,0.19-0.12,0.28-0.18c-0.06-0.09-0.13-0.18-0.19-0.27c-0.88-1.32-0.72-2.96,0.4-4.06
		c0.6-0.58,1.33-0.89,2.15-0.96c0.12-0.01,0.23-0.01,0.36-0.02c-0.14-0.31-0.25-0.61-0.3-0.94c-0.17-0.98-0.02-1.88,0.66-2.63
		c0.6-0.67,1.38-0.93,2.26-0.88c0.69,0.03,1.31,0.26,1.89,0.63c0.04-0.02,0.04-0.07,0.06-0.11c0.39-1.03,1.15-1.61,2.23-1.77
		c0.08-0.01,0.15-0.02,0.23-0.03c0.12,0,0.24,0,0.36,0c1.17,0.09,2.11,0.63,2.86,1.51c0.04,0.05,0.06,0.09,0.14,0.04
		c0.77-0.48,1.61-0.56,2.46-0.31c1.55,0.46,2.53,1.49,2.98,3.04c0.01,0.05,0.01,0.11,0.09,0.11c0.9,0.08,1.67,0.45,2.33,1.05
		c0.69,0.63,1.14,1.39,1.32,2.31c0.12,0.61,0.08,1.21-0.15,1.79c-0.03,0.08-0.02,0.13,0.05,0.19c0.85,0.66,1.41,1.51,1.6,2.58
		c0.17,0.97-0.01,1.86-0.69,2.61c-0.2,0.22-0.43,0.39-0.69,0.52c-0.08,0.04-0.09,0.07-0.05,0.15c0.42,0.83,0.59,1.7,0.33,2.61
		c-0.3,1.05-1,1.68-2.06,1.93c-0.02,0.01-0.05,0-0.07,0.01c0.02-0.02,0.04-0.03,0.07-0.05c0.24-0.16,0.33-0.45,0.24-0.72
		c-0.1-0.26-0.34-0.42-0.63-0.4c-0.28,0.02-0.51,0.23-0.56,0.51c-0.05,0.26,0.1,0.53,0.35,0.66c0.04,0.02,0.07,0.04,0.11,0.05
		c-0.21,0.02-0.42,0-0.63-0.03c0.01-0.08,0.03-0.15,0.02-0.23c-0.01-0.3-0.25-0.57-0.54-0.6c-0.35-0.03-0.63,0.19-0.69,0.53
		c-0.05,0.28,0.16,0.6,0.45,0.67c0.28,0.07,0.5-0.03,0.68-0.24c0.21,1.48-0.63,2.9-2.17,3.21c-0.01,0-0.02,0.01-0.03,0.01
		c-0.01-0.03-0.02-0.05-0.02-0.08c-0.1-0.43-0.42-0.63-0.88-0.56c-0.04,0.01-0.09,0.01-0.13,0.02c-0.19-1.16-0.38-2.32-0.57-3.5
		c-0.3,0.2-0.6,0.35-0.91,0.48c-0.46,0.19-0.93,0.35-1.43,0.36c-0.75,0.01-1.4-0.28-2-0.72c-0.07-0.05-0.14-0.11-0.22-0.17
		c-0.08,0.47-0.16,0.93-0.24,1.38C158.72,27.54,158.6,28.25,158.48,28.96 M158.87,25.26c0,0.01,0.01,0.02,0.02,0.01
		C158.9,25.26,158.89,25.25,158.87,25.26c0.01-0.02,0-0.03-0.01-0.04c0.05-0.03,0.08,0.02,0.11,0.04c0.35,0.21,0.71,0.4,1.1,0.53
		c0.41,0.14,0.82,0.25,1.25,0.23c0.35-0.02,0.69-0.1,1.03-0.2c0.62-0.19,1.23-0.39,1.79-0.72c0.25,0.28,0.69,0.27,0.92-0.02
		c0.2-0.24,0.19-0.5-0.01-0.82c0.51-0.59,0.89-1.26,1.18-1.98c0.15-0.39,0.26-0.78,0.38-1.18c0.03,0.01,0.06,0.03,0.09,0.04
		c0.24,0.1,0.47,0.06,0.66-0.11c0.2-0.18,0.25-0.41,0.17-0.66c-0.09-0.29-0.33-0.42-0.7-0.41c0-0.04,0-0.07,0.01-0.11
		c0.11-0.81,0.14-1.62,0.1-2.44c-0.04-0.8-0.14-1.6-0.37-2.37c-0.23-0.77-0.58-1.48-1.12-2.08c-0.06-0.07-0.09-0.1-0.15,0.02
		c-0.52,1.04-1.95,1.21-2.68,0.32c-0.06-0.07-0.08-0.06-0.14,0c-0.83,0.89-2.28,0.62-2.71-0.5c-0.15-0.4-0.14-0.8,0.02-1.21
		c-0.03,0-0.06,0-0.08,0c-0.45,0.09-0.88,0.22-1.29,0.42c-1.05,0.51-1.71,1.36-2.12,2.43c-0.41,1.07-0.52,2.18-0.55,3.31
		c-0.02,0.74,0.02,1.48,0.12,2.22c-0.01,0.01-0.02,0.03-0.04,0.04c-0.37,0.36-0.25,0.91,0.25,1.07c0.01,0.02,0.02,0.04,0.02,0.07
		c0.15,0.57,0.34,1.12,0.6,1.65c0.32,0.66,0.75,1.25,1.27,1.77c-0.01,0.42,0.35,0.7,0.79,0.61c0.03,0.02,0.06,0.04,0.09,0.06
		C158.85,25.25,158.86,25.25,158.87,25.26z M153.32,19.53c-0.02,0-0.04,0-0.05,0.02c-0.01,0.01-0.02,0.01-0.03,0.02
		c-0.2,0.09-0.4,0.2-0.61,0.26c-0.4,0.13-0.79,0.14-1.16-0.11c-0.35-0.24-0.44-0.63-0.22-1c0.12-0.2,0.28-0.37,0.44-0.54
		c0.12-0.13,0.27-0.24,0.36-0.4c0,0,0.01-0.01,0.01-0.01c0,0-0.01,0-0.01,0c0,0,0,0.01-0.01,0.01c-0.16,0.06-0.31,0.15-0.46,0.23
		c-0.17,0.09-0.35,0.15-0.54,0.15c-0.75,0.01-1.36-0.6-1.37-1.38c-0.01-0.64,0.26-1.14,0.73-1.55c0.1-0.09,0.21-0.17,0.32-0.23
		c0.06-0.03,0.15-0.02,0.16-0.12c-0.73,0.27-1.49,1.04-1.38,2.09c0.08,0.72,0.54,1.23,1.22,1.38c0.16,0.03,0.32,0.04,0.5,0.01
		c-0.07,0.11-0.13,0.19-0.17,0.29c-0.17,0.32-0.19,0.64,0.04,0.95c0.21,0.28,0.5,0.42,0.84,0.44c0.5,0.03,0.91-0.18,1.31-0.46
		c0.01-0.01,0.02-0.01,0.03-0.02C153.3,19.56,153.32,19.56,153.32,19.53c0.01,0,0.01,0,0.02-0.01c0,0-0.01-0.01-0.01-0.01
		C153.33,19.52,153.33,19.53,153.32,19.53z M160.38,11c-0.01,0.02,0,0.02,0.01,0.01C160.39,11.01,160.38,11,160.38,11
		c-0.03-0.03-0.06-0.06-0.09-0.1c-0.2-0.24-0.23-0.6-0.07-0.83c0.17-0.26,0.49-0.36,0.8-0.26c0.04,0.01,0.09,0.04,0.15,0.02
		c-0.17-0.33-0.18-0.65,0.07-0.94c0.24-0.28,0.57-0.32,0.93-0.22c-0.04-0.06-0.09-0.07-0.13-0.09c-0.55-0.22-1.16,0.17-1.18,0.77
		c-0.01,0.19-0.01,0.19-0.19,0.21c-0.53,0.08-0.84,0.61-0.62,1.09C160.11,10.81,160.2,10.96,160.38,11z M168.31,21.57
		c0.34,0,0.62-0.27,0.62-0.61c0-0.35-0.27-0.63-0.61-0.63c-0.35,0-0.62,0.27-0.62,0.62C167.7,21.29,167.97,21.57,168.31,21.57z
		 M156.21,25.33c-0.35,0-0.61,0.27-0.61,0.63c0,0.34,0.27,0.61,0.62,0.61c0.34,0,0.61-0.28,0.62-0.61
		C156.84,25.61,156.56,25.33,156.21,25.33z M169.67,23.92c0.34,0,0.61-0.27,0.62-0.61c0-0.34-0.28-0.62-0.62-0.62
		c-0.34,0-0.61,0.28-0.61,0.63C169.06,23.66,169.32,23.92,169.67,23.92z M154.84,21.47c0.34,0,0.61-0.27,0.61-0.61
		c0-0.34-0.28-0.62-0.62-0.62c-0.34,0-0.61,0.28-0.61,0.62C154.22,21.21,154.49,21.47,154.84,21.47z M154.83,24.95
		c-0.35,0-0.61,0.27-0.61,0.62c0,0.34,0.29,0.62,0.62,0.61c0.34,0,0.62-0.28,0.62-0.62C155.46,25.23,155.18,24.95,154.83,24.95z
		 M169.91,24.71c0.02-0.34-0.25-0.63-0.58-0.65c-0.35-0.02-0.65,0.25-0.65,0.6c-0.01,0.36,0.25,0.61,0.56,0.63
		C169.6,25.33,169.89,25.07,169.91,24.71z M154.1,23.22c0-0.35-0.28-0.63-0.62-0.63c-0.33,0-0.61,0.28-0.62,0.62
		c0,0.34,0.28,0.62,0.62,0.62C153.83,23.83,154.1,23.56,154.1,23.22z M153.85,25.2c0.35,0,0.62-0.26,0.62-0.6
		c0-0.35-0.27-0.63-0.61-0.63c-0.34,0-0.61,0.27-0.62,0.61C153.24,24.93,153.51,25.2,153.85,25.2z M157.61,24.95
		c-0.34-0.01-0.62,0.25-0.63,0.59c-0.02,0.34,0.26,0.64,0.61,0.65c0.33,0.01,0.61-0.27,0.63-0.61
		C158.23,25.25,157.95,24.97,157.61,24.95z M169.91,21.95c0.01-0.34-0.25-0.62-0.6-0.64c-0.33-0.02-0.64,0.27-0.63,0.61
		c0,0.37,0.27,0.61,0.6,0.62C169.62,22.56,169.9,22.29,169.91,21.95z M166.17,25.67c0-0.35-0.26-0.61-0.61-0.62
		c-0.35,0-0.63,0.28-0.63,0.62c0,0.34,0.28,0.61,0.62,0.61C165.91,26.28,166.17,26.02,166.17,25.67z M154.47,21.83
		c0-0.35-0.27-0.61-0.62-0.61c-0.34,0-0.61,0.27-0.61,0.61c0,0.35,0.27,0.62,0.62,0.61C154.21,22.45,154.47,22.18,154.47,21.83z
		 M153.38,19.49C153.38,19.49,153.38,19.49,153.38,19.49c-0.01,0.01,0,0.01,0,0.01C153.39,19.5,153.39,19.5,153.38,19.49
		C153.39,19.49,153.39,19.49,153.38,19.49z M164.42,18.83c-0.04,0-0.07,0.04-0.11,0.02c-0.02-0.03-0.05-0.02-0.08-0.02
		c-0.5-0.04-0.84-0.47-0.74-0.97c0.06-0.28,0.27-0.59,0.77-0.59c0.07,0.03,0.09-0.02,0.12-0.07c0.15-0.23,0.29-0.45,0.47-0.67
		c-0.03,0.29-0.07,0.57-0.1,0.86c-0.01,0.01-0.01,0.01-0.02,0.02c0.01,0,0.03,0.01,0.04,0.01l0,0c0.01,0.03,0.02,0.05,0.05,0.03
		c0,0-0.01,0-0.01,0c-0.01,0.04,0.02,0.05,0.04,0.06c0.22,0.23,0.27,0.49,0.17,0.79c-0.08,0.25-0.27,0.39-0.5,0.49l0,0
		C164.49,18.8,164.45,18.81,164.42,18.83z M159.43,17.43c-0.03,0.01-0.04-0.01-0.06-0.03c-0.04-0.02-0.08-0.04-0.12-0.05
		c0.02-0.07,0.14,0.08,0.12-0.07c-0.04-0.28-0.09-0.55-0.15-0.86c-0.1,0.3-0.19,0.57-0.28,0.84c-0.01,0.03-0.04,0.02-0.06,0.03
		c-0.48,0.04-0.75,0.34-0.73,0.82c0.02,0.42,0.42,0.77,0.85,0.73c0.44-0.04,0.78-0.45,0.72-0.87
		C159.71,17.73,159.58,17.57,159.43,17.43L159.43,17.43z M156.7,15.77c0.02-0.02,0.04-0.04,0.06-0.06c0.44-0.47,0.97-0.7,1.61-0.71
		c0.63-0.01,1.17,0.21,1.67,0.58c0.07,0.05,0.14,0.16,0.21,0.14c0.06-0.02,0.07-0.15,0.11-0.23c0.04-0.08,0.02-0.13-0.05-0.18
		c-0.64-0.56-1.39-0.79-2.23-0.71c-0.51,0.05-0.96,0.23-1.35,0.57c-0.23,0.2-0.23,0.21-0.12,0.49c0.02,0.04,0.03,0.08,0.05,0.13
		C156.69,15.78,156.69,15.78,156.7,15.77z M163.91,15c0.71-0.01,1.29,0.26,1.77,0.79c0.05-0.11,0.09-0.22,0.13-0.32
		c0.03-0.06,0.01-0.1-0.03-0.14c-0.15-0.17-0.33-0.31-0.53-0.42c-0.96-0.55-2.25-0.42-3.14,0.32c-0.17,0.14-0.17,0.14-0.09,0.35
		c0.02,0.05,0.04,0.1,0.07,0.16C162.63,15.3,163.22,15.01,163.91,15z M157.54,16.52c-0.01,0.32-0.03,0.64,0,0.95
		c0.14-0.06,0.28-0.11,0.42-0.17C157.82,17.05,157.68,16.78,157.54,16.52z M163.93,16.34c-0.01,0-0.01,0-0.02,0
		c-0.07,0.3-0.14,0.6-0.21,0.9c0.15,0,0.29,0,0.44,0C164.07,16.93,164,16.64,163.93,16.34z M162.58,16.68
		c-0.01,0-0.01,0.01-0.02,0.01c0.02,0.31,0.04,0.62,0.06,0.92c0.13-0.07,0.26-0.14,0.39-0.21
		C162.86,17.16,162.72,16.92,162.58,16.68z M158.36,16.46c-0.01,0-0.01,0-0.02,0c-0.04,0.26-0.08,0.52-0.12,0.79
		c0.14-0.01,0.29-0.02,0.44-0.03C158.56,16.97,158.46,16.72,158.36,16.46z M163.26,16.56c-0.01,0-0.02,0-0.02,0.01
		c-0.02,0.26-0.04,0.52-0.06,0.78c0.12-0.03,0.25-0.06,0.37-0.09C163.44,17.02,163.35,16.79,163.26,16.56z M156.81,16.92
		c-0.01,0-0.01,0.01-0.02,0.01c0.1,0.28,0.19,0.55,0.29,0.83c0.1-0.04,0.19-0.12,0.28-0.18C157.17,17.35,156.99,17.13,156.81,16.92z
		 M160.02,16.85c-0.14,0.21-0.29,0.41-0.43,0.62c0.09,0.06,0.19,0.12,0.28,0.17C159.94,17.39,159.98,17.12,160.02,16.85z
		 M165.61,17.06L165.61,17.06c-0.04-0.01-0.06,0.03-0.09,0.05c-0.17,0.14-0.34,0.28-0.52,0.41c0.09,0.07,0.18,0.14,0.29,0.18
		C165.4,17.49,165.51,17.27,165.61,17.06z M165.61,17.06C165.62,17.06,165.62,17.06,165.61,17.06c0.01-0.01,0.01-0.01,0.01-0.01
		C165.62,17.05,165.62,17.06,165.61,17.06L165.61,17.06z"/>
</g>
<g>
	<defs>
		<circle id="SVGID_00000059991483050786953070000011485726517579049104_" cx="24.38" cy="24.38" r="24.38"/>
	</defs>
	<clipPath id="SVGID_00000125584696709207117240000006080483127604050054_">
		<use xlink:href="#SVGID_00000059991483050786953070000011485726517579049104_"  style="overflow:visible;"/>
	</clipPath>
	<g style="clip-path:url(#SVGID_00000125584696709207117240000006080483127604050054_);">
		<defs>
			<circle id="SVGID_00000062181299379474891180000004216569755364734119_" cx="24.38" cy="24.38" r="24.38"/>
		</defs>
		<clipPath id="SVGID_00000059990979335370008640000007117080793423943842_">
			<use xlink:href="#SVGID_00000062181299379474891180000004216569755364734119_"  style="overflow:visible;"/>
		</clipPath>
		
			<rect style="clip-path:url(#SVGID_00000059990979335370008640000007117080793423943842_);fill:#126466;" width="48.75" height="48.75"/>
	</g>
	<path style="clip-path:url(#SVGID_00000125584696709207117240000006080483127604050054_);fill:#EEE2DC;" d="M77,45.87
		c1.18-1.39,1.95-3.41,1.57-5.23c-0.62-2.99-4.17-5.07-7.07-5.03c-1.25,0.02-2.59,0.35-3.74,0.84c-0.9,0.38-2.6,1.23-2.53,2.43
		c0.05,0.91,1.11,1.28,1.89,1.21c1.08-0.09,2.07-0.82,2.64-1.72c1.85-2.95-0.79-6.73-3.49-8.02c-3.28-1.57-7.64-0.55-10.47,1.55
		c-1.63,1.21-2.68,3-2.81,5.04c-0.09,1.34,0.35,2.84,1.79,3.23c3.33,0.91,4.85-2.92,4.34-5.52c-0.81-4.17-5.44-7.2-9.59-6.72
		c-1.67,0.19-3.18,1.11-4.84,1.26c-1.09,0.1-2.35-0.1-3.29-0.67c-1.52-0.92-1.44-2.42-0.74-3.88c0.2-0.41-0.45-0.71-0.65-0.3
		c-0.97,2-0.71,4.04,1.47,5.03c1.96,0.89,3.86,0.51,5.8-0.14c3.21-1.08,6.52-0.57,9.06,1.84c1.99,1.89,3.73,7.01,0.11,8.29
		c-2.45,0.87-3.06-1.66-2.55-3.57c0.56-2.12,2.25-3.53,4.19-4.38c2.94-1.29,6.45-1.75,9.14,0.36c2.09,1.64,3.9,6.14,0.47,7.45
		c-0.34,0.13-0.92,0.28-1.28,0.08c-0.96-0.54,0.05-1.29,0.6-1.66c0.94-0.63,2.14-0.99,3.26-1.2c2.89-0.53,6.78,1.08,7.56,4.16
		c0.42,1.66-0.31,3.54-1.39,4.81C76.15,45.77,76.7,46.22,77,45.87"/>
	<path style="clip-path:url(#SVGID_00000125584696709207117240000006080483127604050054_);fill:#EEE2DC;" d="M18.02,15.77
		c-0.05-1.82-0.82-3.84-2.31-4.95c-2.46-1.82-6.48-1-8.62,0.96c-0.92,0.85-1.7,1.98-2.23,3.11c-0.42,0.88-1.12,2.65-0.27,3.5
		c0.64,0.64,1.68,0.21,2.21-0.35c0.75-0.79,0.99-1.99,0.81-3.04c-0.59-3.43-5.07-4.49-7.95-3.65c-3.49,1.01-6.06,4.69-6.77,8.14
		c-0.41,1.99,0,4.03,1.26,5.64c0.83,1.06,2.16,1.88,3.49,1.21c3.08-1.54,1.66-5.41-0.45-7.01c-3.38-2.57-8.85-1.74-11.63,1.39
		c-1.12,1.26-1.63,2.94-2.77,4.17c-0.75,0.8-1.81,1.49-2.9,1.7c-1.74,0.33-2.69-0.84-3.13-2.4c-0.13-0.44-0.81-0.23-0.68,0.21
		c0.61,2.14,2.17,3.48,4.44,2.77c2.05-0.64,3.22-2.19,4.23-3.97c1.67-2.94,4.48-4.77,7.98-4.67c2.74,0.08,7.46,2.74,5.61,6.11
		c-1.25,2.28-3.39,0.8-4.29-0.96c-0.99-1.96-0.68-4.13,0.2-6.06c1.33-2.92,3.64-5.61,7.05-5.83c2.65-0.17,6.99,1.98,5.32,5.24
		c-0.17,0.32-0.5,0.82-0.9,0.91c-1.07,0.24-0.82-1-0.66-1.64c0.28-1.1,0.93-2.17,1.63-3.06c1.8-2.32,5.78-3.71,8.41-1.94
		c1.42,0.95,2.13,2.84,2.17,4.51C17.32,16.25,18.03,16.23,18.02,15.77"/>
	<g style="clip-path:url(#SVGID_00000125584696709207117240000006080483127604050054_);">
		<path class="st9" d="M44.39,21.38c-0.13-0.68-0.42-1.28-0.76-1.87c-0.48-0.83-1.04-1.61-1.43-2.49c-0.1-0.23-0.25-0.44-0.45-0.61
			c-0.23-0.18-0.58-0.22-0.71,0.19c-0.07,0.23-0.07,0.47-0.04,0.71c0.05,0.39,0.21,0.73,0.41,1.07c0.08,0.14,0.17,0.28,0.25,0.42
			c-0.02,0.01-0.02,0.01-0.02,0.01c-0.04-0.01-0.07-0.02-0.1-0.03c-0.29-0.09-0.58-0.15-0.87-0.06c-0.43,0.14-0.83,0.08-1.24-0.08
			c-0.29-0.11-0.59-0.08-0.87,0.05c-0.3,0.14-0.37,0.4-0.19,0.68c0.18,0.27,0.46,0.37,0.75,0.46c0.25,0.07,0.51,0.09,0.76,0.12
			c0.22,0.03,0.29,0.12,0.25,0.33c-0.04,0.22-0.05,0.45-0.04,0.68c0.01,0.2,0.07,0.38,0.19,0.54c0.17,0.22,0.48,0.2,0.62-0.04
			c0.06-0.09,0.1-0.19,0.13-0.3c0.04-0.1,0.08-0.21,0.15-0.29c0.08-0.09,0.18-0.19,0.32-0.17c0.14,0.02,0.17,0.15,0.21,0.25
			c0.01,0.03,0.02,0.06,0.03,0.09c0.06,0.28,0.11,0.56,0.17,0.84c0.05,0.25,0.01,0.48-0.11,0.7c-0.19,0.34-0.49,0.53-0.84,0.65
			c-0.11,0.04-0.24,0.04-0.35-0.04c-0.32-0.22-0.58-0.49-0.78-0.82c-0.18-0.3-0.22-0.65-0.3-0.99c-0.07-0.31-0.15-0.63-0.35-0.89
			c-0.26-0.33-0.74-0.27-0.92,0.1c-0.02,0.04-0.04,0.08-0.05,0.12c-0.12,0.43-0.17,0.87-0.13,1.3c0.05,0.5,0.15,0.99,0.22,1.49
			c0.02,0.13,0.07,0.25,0.03,0.39c0.02,0.04,0.03,0.08,0.05,0.12c0.03,0.12,0.03,0.26,0.05,0.38c0.04,0.26,0.08,0.53,0.1,0.8
			c0,0.01,0.01,0.03,0.02,0.04c0.02,0.02,0.05,0.04,0.05,0.06c0,0.01,0,0.03-0.02,0.04c-0.05,0.3-0.1,0.59-0.18,0.88
			c-0.03,0.1-0.06,0.19-0.1,0.29c-0.18,0.47-0.31,0.95-0.48,1.42c-0.4,1.15-0.87,2.27-1.39,3.37c-0.67,1.41-1.46,2.76-2.31,4.07
			c-0.51,0.8-1.02,1.61-1.44,2.47c-0.26,0.54-0.48,1.11-0.65,1.69c0,0.01-0.01,0.02-0.01,0.03c0,0.01,0,0.02,0,0.04
			c0,0.03,0.01,0.07-0.02,0.1c0,0.01,0,0.01,0,0.02c-0.01,0.01-0.02,0.03-0.03,0.04c-0.01,0.02-0.01,0.05-0.02,0.07
			c-0.1,0.51-0.17,1.02-0.13,1.54c0.04,0.54,0.18,1.05,0.43,1.52c0.03,0.05,0.06,0.11,0.09,0.16c0.05,0.09,0.11,0.17,0.17,0.25
			c0.01,0.01,0.02,0.03,0.03,0.04c0.01,0.02,0.03,0.04,0.04,0.05c0.01,0.02,0.03,0.03,0.04,0.05c0.01,0.01,0.02,0.03,0.04,0.04
			c0.01,0.01,0.03,0.03,0.05,0.04c0.01,0.01,0.03,0.03,0.04,0.04c0.02,0.02,0.05,0.04,0.08,0.06c0.01,0,0.01,0.01,0.02,0.01
			c0.02,0,0.04,0.01,0.04,0.03c0.01,0.01,0.02,0.02,0.02,0.02h0h0h0c0.01,0.01,0.02,0.02,0.02,0.02h0c0.01,0.01,0.02,0.02,0.02,0.03
			c0.1,0.09,0.2,0.17,0.31,0.23c0.07,0.04,0.15,0.08,0.23,0.12c0.12,0.05,0.24,0.1,0.36,0.13c0.01-0.01,0.02-0.01,0.02,0
			c0,0,0,0,0,0l0,0c0.01,0.01,0.03,0.02,0.04,0.02c0.55,0.11,1.08,0.06,1.58-0.23c0.02-0.01,0.04-0.05,0.08-0.01
			c-0.3,0.23-0.63,0.37-1,0.4c-0.74,0.07-1.39-0.14-1.95-0.64c-0.13-0.12-0.23-0.27-0.38-0.37l0,0c-0.05,0-0.05-0.04-0.05-0.07
			c0,0,0,0,0,0c-0.01-0.01-0.02-0.02-0.02-0.02c-0.03-0.05-0.06-0.11-0.1-0.16c-0.29-0.46-0.47-0.95-0.56-1.48
			c-0.03-0.15-0.04-0.31-0.05-0.46c-0.02-0.26-0.01-0.52,0.01-0.78c-0.04,0.01-0.08,0.01-0.12,0.02c-1.2,0.37-2.39,0.73-3.63,0.94
			c-0.57,0.1-1.15,0.16-1.72,0.18c-0.83,0.02-1.67-0.01-2.5-0.09c-0.31-0.03-0.62-0.06-0.92-0.09c-0.5-0.05-1-0.12-1.51-0.19
			c-0.41-0.05-0.81-0.11-1.21-0.18c-0.53-0.1-1.04-0.25-1.53-0.48c-0.05,0.02-0.15-0.01-0.17-0.04c-0.1-0.13-0.22-0.24-0.36-0.33
			c-0.59-0.35-1.23-0.56-1.91-0.63c-0.58-0.06-1.13-0.03-1.66,0.1c-0.53,0.13-1.03,0.37-1.51,0.71c-0.01,0.01-0.02,0.02-0.03,0.02
			l0,0c-0.01,0.01-0.02,0.02-0.03,0.02v0c-0.01,0.02-0.03,0.03-0.05,0.03c0,0,0,0.01-0.01,0.01c-0.08,0.15-0.22,0.24-0.33,0.36
			c-0.36,0.41-0.66,0.86-0.79,1.39c-0.07,0.3-0.05,0.61,0.01,0.91c0.17,0.51,0.5,0.88,0.92,1.2c0.46,0.36,0.98,0.61,1.52,0.83
			c0.24,0.09,0.48,0.18,0.72,0.27c0.16,0.01,0.3,0.09,0.45,0.14c0.27,0.1,0.56,0.18,0.83,0.29l0,0c0.03,0,0.06-0.01,0.07,0.03
			c0.01,0.01,0.03,0.01,0.04,0.02c0.65,0.19,1.32,0.31,1.99,0.45c0.63,0.13,1.27,0.23,1.9,0.31c0.48,0.06,0.96,0.12,1.44,0.16
			c0.53,0.05,1.07,0.08,1.6,0.11c0.32,0.02,0.64,0.02,0.95,0.03c0.59,0,1.18,0,1.77,0c0.41-0.01,0.82-0.02,1.23-0.05
			c0.39-0.03,0.78-0.04,1.17-0.08c0.67-0.07,1.34-0.15,2.01-0.26c0.85-0.14,1.69-0.33,2.51-0.58c0.93-0.29,1.8-0.69,2.55-1.31
			c0.19-0.16,0.36-0.34,0.43-0.58c0.15-0.2,0.29-0.4,0.39-0.63c0.07-0.11,0.18-0.18,0.27-0.26c0.56-0.54,1.02-1.16,1.43-1.82
			c0.63-1,1.23-2.02,1.75-3.08c0.42-0.85,0.79-1.72,1.07-2.63c0.17-0.54,0.27-1.1,0.37-1.66c0.16-0.9,0.3-1.81,0.42-2.72
			c0.11-0.86,0.22-1.72,0.34-2.58c0.1-0.73,0.19-1.47,0.31-2.2c0.04-0.21,0.11-0.41,0.23-0.59c0.61-0.92,1.22-1.84,1.83-2.77
			c0.22-0.34,0.35-0.7,0.37-1.11c0-0.03,0-0.06,0.02-0.08c0-0.03,0-0.06,0-0.1C44.4,21.7,44.42,21.54,44.39,21.38 M38.62,25.22
			c0-0.01-0.01-0.01-0.01-0.02c0-0.01,0.01-0.01,0.01-0.02c0,0.01,0.01,0.01,0.01,0.02C38.63,25.21,38.62,25.21,38.62,25.22z"/>
		<polyline class="st9" points="12.65,40.43 12.65,40.43 12.65,40.43 12.65,40.43 		"/>
		<polyline class="st9" points="32.23,43.34 32.23,43.34 32.23,43.34 		"/>
		<path class="st9" d="M18.92,16.82c0.01,0.02,0.02,0.04,0.02,0.07c0.15,0.57,0.34,1.12,0.6,1.65c0.32,0.66,0.75,1.25,1.27,1.77
			c0.25,0.22,0.5,0.44,0.79,0.61c0.03,0.02,0.06,0.04,0.09,0.06c0.01-0.01,0.01-0.01,0.02-0.02c0.01-0.01,0.02-0.01,0.03-0.01
			c0.01,0,0.01,0,0.01,0c0.02,0.01,0.04,0.03,0.06,0.05c0.35,0.21,0.71,0.4,1.1,0.53c0.41,0.14,0.82,0.25,1.25,0.23
			c0.35-0.02,0.69-0.1,1.03-0.2c0.62-0.19,1.23-0.39,1.79-0.72c0.2-0.18,0.42-0.33,0.61-0.52c0.1-0.1,0.2-0.21,0.3-0.32
			c0.32-0.37,0.59-0.77,0.81-1.19c0.14-0.25,0.26-0.52,0.36-0.79c0.15-0.39,0.26-0.78,0.38-1.18c0.07-0.38,0.14-0.76,0.22-1.13
			c0-0.04,0-0.07,0.01-0.11c0.11-0.81,0.14-1.62,0.1-2.44c-0.04-0.8-0.14-1.6-0.37-2.37c-0.23-0.77-0.58-1.48-1.12-2.08
			c-0.06-0.07-0.09-0.1-0.15,0.02c-0.52,1.04-1.95,1.21-2.68,0.32c-0.06-0.07-0.08-0.06-0.14,0c-0.83,0.89-2.28,0.62-2.71-0.5
			c-0.15-0.4-0.14-0.8,0.02-1.21c-0.03,0-0.06,0-0.08,0c-0.45,0.09-0.88,0.22-1.29,0.42c-1.05,0.51-1.71,1.36-2.12,2.43
			c-0.41,1.07-0.52,2.18-0.55,3.31c-0.02,0.74,0.02,1.48,0.12,2.22c0.06,0.33,0.13,0.66,0.19,0.99
			C18.91,16.74,18.92,16.78,18.92,16.82 M23.15,13.94c-0.27,0.3-0.59,0.5-0.98,0.59c-0.78,0.19-1.51,0.07-2.19-0.34
			c-0.11-0.07-0.21-0.15-0.28-0.26c-0.05-0.07-0.05-0.11,0-0.18c0.07-0.1,0.19-0.15,0.25-0.26c-0.1-0.28-0.19-0.55-0.29-0.83
			c0.01,0,0.01-0.01,0.02-0.01c0.18,0.22,0.37,0.44,0.55,0.66c0.06-0.03,0.13-0.05,0.18-0.1c-0.03-0.31-0.02-0.63,0-0.95
			c0.14,0.26,0.28,0.52,0.42,0.78c0.09-0.02,0.17-0.04,0.26-0.05c0.04-0.26,0.08-0.52,0.12-0.79c0.01,0,0.01,0,0.02,0
			c0.1,0.25,0.2,0.51,0.29,0.76c0.1,0.01,0.2,0.02,0.3,0.03c0.04-0.13,0.09-0.27,0.14-0.41c0.05-0.14,0.09-0.28,0.14-0.43
			c0.05,0.31,0.11,0.58,0.15,0.86c0.02,0.15-0.1,0-0.12,0.07c0.02,0.01,0.06,0.03,0.09,0.04c0.01,0,0.02,0.01,0.03,0.01c0,0,0,0,0,0
			c0.02,0,0.04,0,0.06,0.03c0.05-0.01,0.09,0.03,0.14,0.04c0,0,0,0,0,0c0.01,0,0.01,0,0.02,0c0.14-0.21,0.29-0.41,0.43-0.62
			c-0.04,0.27-0.08,0.54-0.15,0.79c0.15,0.11,0.29,0.23,0.42,0.36C23.24,13.82,23.21,13.87,23.15,13.94z M27.36,17.45
			c-0.69,0-1.23-0.55-1.21-1.24c-0.04-0.6,0.53-1.21,1.22-1.2c0.67,0.01,1.23,0.57,1.21,1.25C28.55,16.93,28.03,17.45,27.36,17.45z
			 M25.48,13.35c-0.02-0.31-0.04-0.62-0.06-0.92c0.01,0,0.01-0.01,0.02-0.01c0.14,0.24,0.28,0.48,0.42,0.73
			c0.06-0.02,0.11-0.04,0.17-0.06c0.02-0.26,0.04-0.52,0.06-0.78c0.01,0,0.02,0,0.02-0.01c0.09,0.23,0.19,0.46,0.28,0.69
			c0.03,0,0.05,0,0.08,0c0.03-0.01,0.05-0.01,0.08-0.02c0.07-0.3,0.14-0.6,0.21-0.9c0.01,0,0.01,0,0.02,0c0.07,0.3,0.14,0.6,0.2,0.9
			c0.03,0.03,0.08,0.01,0.12,0.04c0.07,0.03,0.09-0.02,0.12-0.07c0.15-0.23,0.29-0.45,0.47-0.67c-0.03,0.29-0.07,0.57-0.1,0.86
			c0.01,0.01,0.01,0.02,0.02,0.03c0,0,0,0,0,0c0.01,0,0.02,0,0.03,0c0.01,0,0.02,0.01,0.02,0.02c0,0,0,0,0,0
			c0.08-0.01,0.13,0.06,0.2,0.07c0.17-0.14,0.34-0.28,0.52-0.41c0.03-0.02,0.04-0.06,0.09-0.05c0,0,0,0,0,0l0,0l0,0c0,0,0,0,0,0
			c0,0,0-0.01,0-0.01c0,0,0,0.01,0,0.01c0,0,0,0,0,0c0,0,0,0,0,0.01c0,0,0,0,0,0c-0.1,0.21-0.21,0.43-0.31,0.64
			c0.1,0.12,0.24,0.2,0.34,0.32c0.03,0.03,0.07,0.06,0.03,0.11c-0.04,0.05-0.08,0.09-0.12,0.13c-0.03,0.03-0.07,0.07-0.1,0.1
			c-0.01,0.01-0.02,0.02-0.02,0.02c-0.25,0.23-0.55,0.37-0.91,0.42c0,0,0,0,0,0c-0.03,0.04-0.07,0.01-0.11,0.02
			c-0.02,0-0.04,0.01-0.05,0.02c-0.02,0.01-0.04,0.01-0.06,0.01c-0.19,0.03-0.38,0.04-0.57,0.02c-0.05,0-0.1-0.01-0.15-0.02
			c-0.14-0.02-0.29-0.05-0.43-0.09c-0.33-0.09-0.64-0.22-0.89-0.46c-0.18-0.18-0.18-0.21-0.01-0.39c0.03-0.03,0.06-0.05,0.09-0.08
			C25.29,13.5,25.39,13.43,25.48,13.35z M24.99,10.97c0.89-0.74,2.18-0.87,3.14-0.32c0.2,0.11,0.37,0.25,0.53,0.42
			c0.04,0.04,0.05,0.08,0.03,0.14c-0.05,0.1-0.09,0.21-0.13,0.32c-0.48-0.54-1.06-0.81-1.77-0.79c-0.69,0.01-1.28,0.3-1.8,0.74
			c-0.03-0.07-0.05-0.12-0.07-0.16C24.82,11.11,24.82,11.11,24.99,10.97z M23.45,16.84c0.16-0.94,0.31-1.88,0.46-2.82
			c0.01-0.07,0.02-0.14,0.03-0.2c0.01-0.11,0.05-0.16,0.16-0.15c0.08,0.01,0.1,0.02,0.11,0.1c0.07,0.62,0.14,1.25,0.21,1.87
			c0.04,0.39,0.08,0.78,0.13,1.18c0.01,0.1-0.02,0.13-0.12,0.13c-0.15-0.01-0.3,0-0.45,0c-0.15,0-0.29,0-0.44,0
			C23.46,16.95,23.43,16.94,23.45,16.84z M23.5,18.46c0.14-0.12,0.27-0.25,0.42-0.37c0.17-0.14,0.34-0.16,0.53-0.06
			c0.06,0.03,0.12,0.05,0.18,0.08c0.14,0.05,0.26,0.04,0.38-0.07c0.23-0.23,0.4-0.26,0.7-0.13c0.16,0.07,0.31,0.17,0.46,0.27
			c0.07,0.05,0.07,0.09,0.02,0.16c-0.27,0.34-0.62,0.56-1.04,0.67c-0.14,0.04-0.29,0.06-0.37,0.05c-0.51-0.01-0.91-0.13-1.26-0.4
			C23.44,18.59,23.41,18.55,23.5,18.46z M19.6,10.91c0.39-0.34,0.84-0.52,1.35-0.57c0.84-0.08,1.59,0.14,2.23,0.71
			c0.06,0.06,0.09,0.1,0.05,0.18c-0.04,0.08-0.05,0.21-0.11,0.23c-0.07,0.03-0.14-0.09-0.21-0.14c-0.5-0.36-1.05-0.59-1.67-0.58
			c-0.64,0.01-1.18,0.25-1.61,0.71c-0.02,0.02-0.04,0.04-0.06,0.06c0,0-0.01,0-0.02,0.01c-0.02-0.04-0.04-0.08-0.05-0.13
			C19.36,11.11,19.36,11.11,19.6,10.91z M20.62,15.08c0.67-0.03,1.22,0.56,1.22,1.21c0,0.66-0.56,1.23-1.25,1.21
			c-0.61-0.01-1.19-0.54-1.19-1.23C19.4,15.66,19.95,15.03,20.62,15.08z"/>
		<path class="st9" d="M25.59,21.7c-0.46,0.19-0.93,0.35-1.43,0.36c-0.75,0.01-1.4-0.28-2-0.72c-0.07-0.05-0.14-0.11-0.22-0.17
			c-0.08,0.47-0.16,0.93-0.24,1.38c-0.12,0.71-0.24,1.42-0.36,2.13c0.01,0.01,0.03,0.01,0.04,0.02c0.04,0.01,0.09,0.01,0.13,0.01
			c0.07,0.01,0.14-0.02,0.2,0.02c0.07,0.01,0.15-0.03,0.22,0.03c0.04,0.01,0.08,0.01,0.12,0.02c0.27,0.07,0.54,0.12,0.81,0.22
			c0.16,0,0.33,0.01,0.49,0c0.09,0,0.12,0.04,0.12,0.12c0.08,0.01,0.16,0.02,0.24,0.02c0.24,0.02,0.49,0.03,0.73,0.03
			c0.16,0,0.32-0.04,0.48-0.03c0.01-0.14,0.1-0.17,0.21-0.14c0.14,0.03,0.28,0.01,0.42,0.07c0.04-0.01,0.09-0.02,0.13-0.02
			c0.48-0.08,0.94-0.22,1.4-0.34c-0.19-1.16-0.38-2.32-0.57-3.5C26.2,21.42,25.9,21.57,25.59,21.7"/>
		<path class="st10" d="M15.56,29.63c0.69,0.17,1.37,0.34,2.06,0.51c0.27,0.07,0.54,0.13,0.84,0.2c-0.03-0.09-0.08-0.14-0.12-0.2
			c-0.18-0.23-0.4-0.4-0.64-0.56c-0.34-0.23-0.71-0.39-1.12-0.41c-0.39-0.02-0.74,0.11-1.04,0.36c-0.02,0.02-0.07,0.03-0.06,0.07
			C15.48,29.63,15.53,29.62,15.56,29.63"/>
		<path class="st10" d="M20.59,17.5c0.69,0.02,1.25-0.55,1.25-1.21c0-0.65-0.54-1.25-1.22-1.21c-0.67-0.04-1.22,0.58-1.22,1.2
			C19.4,16.97,19.98,17.49,20.59,17.5"/>
		<path class="st10" d="M15.42,15.7c0.25-0.08,0.47-0.22,0.7-0.37c-0.01-0.01-0.01-0.01-0.02-0.02c-0.2,0.09-0.4,0.2-0.61,0.26
			c-0.4,0.13-0.79,0.14-1.16-0.11c-0.35-0.24-0.44-0.63-0.22-1c0.12-0.2,0.28-0.37,0.44-0.54c0.03-0.03,0.06-0.06,0.1-0.1
			c0.07-0.06,0.13-0.12,0.19-0.19c0.03-0.03,0.05-0.07,0.08-0.11c-0.16,0.06-0.31,0.15-0.46,0.23c-0.17,0.09-0.35,0.15-0.54,0.15
			c-0.75,0.01-1.36-0.6-1.37-1.38c-0.01-0.64,0.26-1.14,0.73-1.55c0.1-0.09,0.21-0.17,0.32-0.23c0.01-0.01,0.03-0.01,0.05-0.02
			c0.05-0.02,0.1-0.03,0.11-0.1c-0.59,0.22-1.21,0.77-1.36,1.53c-0.03,0.18-0.04,0.36-0.02,0.56c0.08,0.72,0.54,1.23,1.22,1.38
			c0.16,0.03,0.32,0.04,0.5,0.01c-0.07,0.11-0.13,0.19-0.17,0.29c-0.17,0.32-0.19,0.64,0.04,0.95c0.21,0.28,0.5,0.42,0.84,0.44
			C15.03,15.8,15.23,15.76,15.42,15.7"/>
		<path class="st10" d="M37.98,27.01c-0.38,1.01-0.81,2-1.27,2.98c-0.29,0.62-0.61,1.24-0.93,1.85c-0.37,0.69-0.76,1.37-1.17,2.03
			c-0.55,0.89-1.16,1.75-1.67,2.66c-0.41,0.72-0.78,1.45-1.04,2.23c-0.04,0.13-0.09,0.25-0.13,0.38c-0.01-0.33,0-0.65,0-0.97
			c0.01-0.77,0.03-1.55-0.02-2.32c-0.02-0.33-0.04-0.66-0.08-0.99c-0.04-0.39-0.1-0.77-0.16-1.16c-0.09-0.54-0.19-1.07-0.36-1.59
			c-0.18-0.57-0.4-1.12-0.64-1.67c-0.03-0.07-0.08-0.14,0.03-0.2c0.98-0.52,1.96-1.04,2.94-1.56c0.24-0.13,0.48-0.26,0.72-0.39
			c-0.21-0.09-0.84-0.09-1.23,0c-1.15,0.24-1.99,0.9-2.54,1.98c-0.09-0.22-0.17-0.4-0.25-0.59c-0.02-0.04,0-0.06,0.02-0.09
			c0.21-0.25,0.42-0.5,0.63-0.75c0.34-0.41,0.68-0.82,1.02-1.23c0.33-0.4,0.67-0.8,1-1.21c0.25-0.3,0.5-0.6,0.75-0.9
			c0.08-0.1,0.1-0.2,0.03-0.31c-0.07-0.1-0.16-0.19-0.28-0.22c-0.23-0.05-0.41,0.04-0.58,0.17c-0.43,0.33-0.79,0.73-1.12,1.15
			c-0.69,0.88-1.2,1.85-1.46,2.95c-0.02,0.08-0.02,0.18-0.08,0.27c-0.2-0.45-0.36-0.91-0.52-1.36c0.02,0.19,0.05,0.38,0.08,0.57
			c0.1,0.57,0.2,1.14,0.3,1.71c0.1,0.59,0.2,1.17,0.3,1.76c0.09,0.53,0.19,1.06,0.28,1.59c0.11,0.63,0.22,1.27,0.33,1.9
			c0.11,0.62,0.22,1.23,0.33,1.85c0.1,0.59,0.19,1.18,0.31,1.77c0.01,0.05,0.02,0.09,0.03,0.14c0.01,0.09,0.02,0.19,0.02,0.28
			c0,0.1,0,0.19-0.01,0.29c-0.01,0.13-0.03,0.26-0.06,0.4c-0.02,0.26-0.02,0.52-0.01,0.78c0.01,0.16,0.03,0.31,0.05,0.46
			c0.09,0.53,0.27,1.03,0.56,1.48c0.03,0.05,0.07,0.11,0.1,0.16c0.01,0.01,0.02,0.02,0.02,0.02c0.03,0.01,0.05,0.04,0.05,0.07l0,0
			c0.15,0.1,0.24,0.25,0.38,0.37c0.56,0.5,1.21,0.71,1.95,0.64c0.36-0.04,0.7-0.18,1-0.4c-0.04-0.03-0.06,0-0.08,0.01
			c-0.5,0.29-1.02,0.34-1.58,0.23c-0.01,0-0.03-0.01-0.04-0.02l-0.01,0l-0.01,0c-0.13-0.03-0.25-0.08-0.36-0.13
			c-0.08-0.04-0.15-0.07-0.23-0.12c-0.11-0.07-0.21-0.14-0.31-0.23c-0.01-0.01-0.02-0.02-0.02-0.03h0
			c-0.01-0.01-0.02-0.02-0.02-0.02h0c-0.01-0.01-0.02-0.02-0.02-0.02l0,0c-0.02,0-0.04-0.01-0.05-0.03c0,0,0,0,0,0
			c-0.01-0.01-0.01-0.01-0.02-0.01c-0.03-0.02-0.05-0.04-0.08-0.06c-0.01-0.01-0.03-0.03-0.04-0.04c-0.02-0.01-0.03-0.03-0.05-0.04
			c-0.01-0.01-0.02-0.03-0.04-0.04c-0.01-0.02-0.03-0.03-0.04-0.05c-0.01-0.02-0.03-0.03-0.04-0.05c-0.01-0.01-0.02-0.03-0.03-0.04
			c-0.06-0.08-0.12-0.16-0.17-0.25c-0.03-0.05-0.06-0.1-0.09-0.16c-0.25-0.47-0.39-0.98-0.43-1.52c-0.04-0.52,0.03-1.03,0.13-1.54
			c0-0.02,0.01-0.05,0.02-0.07c0.01-0.01,0.01-0.03,0.03-0.04c0-0.01,0-0.01,0-0.02c0-0.04-0.01-0.07,0.02-0.1c0-0.01,0-0.02,0-0.04
			c0-0.01,0-0.02,0.01-0.03c0.17-0.58,0.39-1.14,0.65-1.69c0.42-0.86,0.92-1.66,1.44-2.47c0.84-1.31,1.63-2.66,2.31-4.07
			c0.52-1.1,0.99-2.22,1.39-3.37c0.16-0.47,0.29-0.96,0.48-1.42c0.04-0.1,0.07-0.19,0.1-0.29c0.08-0.29,0.12-0.59,0.18-0.88
			c-0.03,0.03-0.04,0.07-0.05,0.11C38.36,25.98,38.17,26.5,37.98,27.01"/>
		<path class="st10" d="M27.37,15c-0.69-0.01-1.26,0.6-1.22,1.2c-0.03,0.69,0.52,1.24,1.21,1.24c0.67,0,1.2-0.52,1.22-1.2
			C28.59,15.57,28.04,15.01,27.37,15"/>
		<path class="st10" d="M22.96,6.51c0.03,0.05,0.06,0.1,0.11,0.14c0.04,0.04,0.1,0.07,0.16,0.08c-0.03-0.03-0.06-0.06-0.08-0.1
			c-0.2-0.24-0.23-0.6-0.07-0.83c0.17-0.26,0.49-0.36,0.8-0.26c0.04,0.01,0.09,0.04,0.15,0.02c-0.17-0.33-0.18-0.65,0.07-0.94
			c0.24-0.28,0.57-0.32,0.93-0.22c-0.04-0.06-0.09-0.07-0.13-0.09c-0.55-0.22-1.16,0.17-1.18,0.77c-0.01,0.19-0.01,0.19-0.19,0.21
			c-0.53,0.08-0.84,0.61-0.62,1.09C22.92,6.44,22.94,6.47,22.96,6.51"/>
		<path class="st10" d="M21.71,24.75c-0.1,0-0.21,0.01-0.31,0.02c-0.1,0.01-0.11,0.05-0.09,0.12c0.05,0.29-0.01,0.59-0.01,0.88
			c0,0.08-0.01,0.17-0.02,0.25c-0.05,0.31-0.08,0.62-0.16,0.92c-0.02,0.07,0.02,0.11,0.09,0.13c0.13,0.03,0.25,0.06,0.37,0.09
			c0.08,0.02,0.12,0,0.14-0.08c0.1-0.42,0.16-0.85,0.2-1.28c0.02-0.17,0.02-0.34,0.02-0.51c0-0.17,0-0.34,0-0.51
			C21.86,24.72,21.78,24.76,21.71,24.75"/>
		<path class="st10" d="M26.54,26.2c0.04,0.31,0.08,0.62,0.12,0.93c0.01,0.08,0.04,0.09,0.11,0.09c0.14-0.02,0.28-0.04,0.42-0.05
			c0.08,0,0.09-0.04,0.08-0.11c-0.04-0.31-0.08-0.61-0.12-0.92c-0.05-0.37-0.1-0.73-0.14-1.1c-0.01-0.11-0.05-0.15-0.13-0.13
			c-0.14,0.01-0.25,0.02-0.35,0.03c-0.14,0.02-0.15,0.04-0.13,0.18C26.45,25.49,26.49,25.84,26.54,26.2"/>
		<path class="st10" d="M23.54,16.95c0.15,0,0.29,0,0.44,0c0.15,0,0.3-0.01,0.45,0c0.1,0.01,0.14-0.02,0.12-0.13
			c-0.05-0.39-0.08-0.78-0.13-1.18c-0.07-0.62-0.14-1.25-0.21-1.87c-0.01-0.08-0.03-0.1-0.11-0.1c-0.12-0.01-0.16,0.04-0.16,0.15
			c0,0.07-0.02,0.14-0.03,0.2c-0.15,0.94-0.31,1.88-0.46,2.82C23.43,16.94,23.46,16.95,23.54,16.95"/>
		<path class="st10" d="M25.13,25.02c-0.12-0.03-0.21,0-0.21,0.14c-0.01,0.13-0.02,0.26-0.02,0.4c-0.01,0.35-0.03,0.69-0.01,1.04
			c0.02,0.3,0.05,0.61,0.08,0.91c0,0.06,0.03,0.07,0.09,0.06c0.12-0.02,0.25-0.04,0.37-0.06c0.15-0.02,0.16-0.04,0.14-0.2
			c-0.03-0.23-0.06-0.47-0.07-0.71c0-0.19-0.01-0.38-0.01-0.57c0-0.32,0.01-0.63,0.06-0.95C25.41,25.02,25.27,25.05,25.13,25.02"/>
		<path class="st10" d="M23.52,18.66c0.35,0.27,0.74,0.39,1.26,0.4c0.08,0.01,0.22-0.02,0.37-0.05c0.42-0.11,0.77-0.32,1.04-0.67
			c0.05-0.07,0.05-0.11-0.02-0.16c-0.15-0.1-0.29-0.2-0.46-0.27c-0.3-0.13-0.47-0.1-0.7,0.13c-0.11,0.11-0.24,0.12-0.38,0.07
			c-0.06-0.02-0.12-0.05-0.18-0.08c-0.19-0.1-0.36-0.08-0.53,0.06c-0.14,0.12-0.28,0.24-0.42,0.37
			C23.41,18.55,23.44,18.59,23.52,18.66"/>
		<path class="st10" d="M23.34,25.02c-0.16,0.01-0.33,0-0.49,0c-0.03,0.25-0.02,0.5-0.03,0.75c-0.02,0.46-0.04,0.92-0.07,1.37
			c0,0.08,0.02,0.11,0.1,0.11c0.13,0,0.26-0.01,0.39,0.01c0.11,0.02,0.13-0.02,0.14-0.11c0-0.2,0.01-0.4,0.02-0.6
			c0.02-0.47,0.04-0.93,0.06-1.4C23.47,25.05,23.43,25.01,23.34,25.02"/>
		<path class="st10" d="M25,39.64c0.03-0.6,0.05-1.2,0.08-1.8c0.02-0.31,0.01-0.63,0.03-0.94c0.02-0.21,0.01-0.41,0.02-0.62
			c0.03-0.4,0.05-0.8,0.03-1.21c-0.44,0.85-0.63,1.77-0.67,2.73c-0.04,0.96,0.09,1.89,0.45,2.81C24.99,40.26,24.99,39.95,25,39.64"
			/>
		<path class="st10" d="M12.59,40.45c0.01-0.01,0.04-0.01,0.05-0.02c0.01-0.02,0.03-0.03,0.05-0.03v0c0.01-0.01,0.02-0.02,0.03-0.02
			c0,0,0,0,0,0l0,0c0.01-0.01,0.02-0.02,0.03-0.02c0.47-0.35,0.98-0.58,1.51-0.71c0.53-0.13,1.08-0.16,1.66-0.1
			c0.68,0.07,1.32,0.28,1.91,0.63c0.14,0.09,0.26,0.2,0.36,0.33c0.03,0.03,0.12,0.06,0.17,0.04c0-0.09,0-0.18,0.01-0.27
			c0.03-0.39,0.06-0.79,0.09-1.18c0.02-0.22,0.03-0.45,0.05-0.67c0.03-0.38,0.06-0.75,0.09-1.13c0.02-0.24,0.03-0.47,0.05-0.71
			c0.03-0.38,0.06-0.77,0.09-1.15c0.02-0.23,0.03-0.46,0.05-0.69c0.03-0.36,0.06-0.73,0.09-1.09c0.02-0.25,0.03-0.5,0.05-0.75
			c0.03-0.39,0.06-0.79,0.09-1.18c0.02-0.22,0.03-0.45,0.05-0.67c0.03-0.38,0.06-0.75,0.09-1.13c0.02-0.24,0.03-0.47,0.05-0.71
			c0.03-0.38,0.06-0.77,0.09-1.15c0.02-0.25,0.05-0.5,0.06-0.76c0.01-0.17,0.04-0.35,0.02-0.52c-0.13,0.97-0.39,1.9-0.68,2.83
			c-0.05-0.04-0.06-0.08-0.08-0.12c-0.31-0.64-0.66-1.25-1.04-1.84c-0.36-0.56-0.77-1.1-1.19-1.61c-0.17-0.21-0.35-0.41-0.6-0.52
			c-0.22-0.1-0.53-0.07-0.68,0.07c-0.05,0.05-0.07,0.08-0.01,0.14c0.23,0.25,0.45,0.51,0.67,0.76c0.26,0.3,0.53,0.6,0.79,0.9
			c0.39,0.44,0.77,0.88,1.15,1.32c0.28,0.32,0.56,0.65,0.85,0.96c0.07,0.08,0.07,0.14,0.04,0.24c-0.27,0.79-0.54,1.59-0.8,2.38
			c-0.32,0.96-0.62,1.93-0.72,2.95c-0.04,0.43-0.06,0.86-0.04,1.29c0.02,0.47,0.07,0.95,0.11,1.42c0.04,0.41,0.1,0.82,0.23,1.22
			c0.08,0.25,0.2,0.49,0.3,0.73c-0.03,0-0.05-0.01-0.07-0.02c-0.02-0.01-0.04-0.03-0.06-0.04c-0.66-0.43-1.39-0.65-2.17-0.71
			c-0.33-0.02-0.66,0.01-0.98,0.07c-0.96,0.17-1.77,0.62-2.43,1.33c-0.3,0.32-0.53,0.66-0.72,1.04c-0.11,0.23-0.2,0.46-0.27,0.71
			c0,0.02,0,0.03,0.01,0.05c0.15-0.28,0.31-0.56,0.5-0.81C11.85,41.11,12.19,40.75,12.59,40.45 M17.75,39.91
			C17.74,39.91,17.74,39.9,17.75,39.91C17.74,39.9,17.74,39.9,17.75,39.91C17.75,39.9,17.75,39.91,17.75,39.91z"/>
		<polyline class="st10" points="12.65,40.43 12.65,40.43 12.65,40.43 		"/>
		<polyline class="st10" points="33.9,44.24 33.9,44.24 33.9,44.24 		"/>
		<polyline class="st10" points="32.23,43.34 32.23,43.34 32.23,43.34 32.23,43.34 		"/>
		<path class="st11" d="M27.62,13.17c0.01,0.02,0.02,0.04,0.04,0.03c0,0,0,0,0,0c0,0,0.01,0,0.01,0c0-0.01-0.01-0.02-0.02-0.02
			C27.65,13.16,27.63,13.16,27.62,13.17L27.62,13.17C27.62,13.17,27.62,13.17,27.62,13.17"/>
		<path class="st11" d="M22.73,13.39c-0.09-0.06-0.19-0.12-0.28-0.17c-0.01,0-0.01,0-0.02,0c0,0,0,0,0,0
			c-0.05-0.01-0.08-0.05-0.14-0.04c-0.01-0.02-0.03-0.02-0.06-0.03c0,0,0,0,0,0c0.01,0.02,0.03,0.03,0.06,0.03c0,0,0,0,0,0l0,0
			c0,0,0,0,0,0c0.15,0.15,0.28,0.3,0.31,0.53c0.06,0.42-0.28,0.83-0.72,0.87c-0.43,0.04-0.84-0.3-0.85-0.73
			c-0.02-0.48,0.25-0.78,0.73-0.82c0.02,0,0.05,0.01,0.06-0.03c-0.1-0.01-0.2-0.02-0.3-0.03c-0.15,0.01-0.29,0.02-0.44,0.03
			c-0.09,0.02-0.17,0.04-0.26,0.05c-0.14,0.06-0.28,0.11-0.42,0.17c-0.05,0.04-0.12,0.07-0.18,0.1c-0.09,0.06-0.17,0.14-0.28,0.18
			c-0.06,0.11-0.18,0.16-0.25,0.26c-0.05,0.07-0.05,0.11,0,0.18c0.08,0.11,0.17,0.19,0.28,0.26c0.68,0.42,1.41,0.53,2.19,0.34
			c0.39-0.09,0.71-0.29,0.98-0.59c0.06-0.07,0.09-0.12,0.01-0.2C23.02,13.62,22.88,13.5,22.73,13.39"/>
		<path class="st11" d="M21.01,1.79c-0.12,0-0.24,0-0.36,0c0,0.01,0,0.01,0,0.02c0.12,0,0.24,0,0.36,0
			C21.01,1.81,21.01,1.8,21.01,1.79"/>
		<path class="st11" d="M27.6,13.14c-0.01,0.01-0.01,0.01-0.02,0.02c0.01,0,0.02,0.01,0.04,0.01c0,0,0,0,0,0
			C27.62,13.16,27.61,13.15,27.6,13.14"/>
		<path class="st11" d="M27.67,13.19c-0.01,0.04,0.02,0.05,0.04,0.06c0.22,0.23,0.27,0.49,0.17,0.79c-0.08,0.25-0.27,0.39-0.5,0.49
			c0,0,0,0,0,0c-0.04,0-0.07,0-0.11,0.03c0.04-0.01,0.08,0.02,0.11-0.02c0,0,0,0,0,0c0.36-0.05,0.65-0.19,0.91-0.42
			c0.01-0.01,0.02-0.02,0.02-0.02c0.03-0.03,0.07-0.06,0.1-0.1c0.04-0.04,0.08-0.09,0.12-0.13c0.04-0.05,0-0.08-0.03-0.11
			c-0.1-0.12-0.24-0.19-0.34-0.32c-0.11-0.04-0.2-0.11-0.29-0.18C27.8,13.26,27.75,13.18,27.67,13.19
			C27.67,13.19,27.67,13.19,27.67,13.19"/>
		<path class="st11" d="M25.48,13.35c-0.08,0.08-0.18,0.14-0.27,0.22c-0.03,0.02-0.06,0.05-0.09,0.08
			c-0.18,0.18-0.18,0.21,0.01,0.39c0.25,0.24,0.56,0.37,0.89,0.46c0.14,0.04,0.28,0.07,0.43,0.09c0.05,0.01,0.1,0.01,0.15,0.02
			c0.19,0.02,0.38,0.01,0.57-0.02c-0.02-0.03-0.05-0.02-0.08-0.02c-0.5-0.04-0.84-0.47-0.74-0.97c0.06-0.28,0.27-0.59,0.77-0.59
			c-0.04-0.02-0.09,0-0.12-0.04c-0.15,0-0.29,0-0.44,0c-0.03,0.01-0.05,0.01-0.08,0.02c-0.03,0-0.05,0.01-0.08,0
			c-0.12,0.03-0.25,0.06-0.37,0.09c-0.06,0.02-0.11,0.04-0.17,0.06C25.73,13.21,25.6,13.28,25.48,13.35"/>
		<path class="st12" d="M21.76,13.02c-0.48,0.04-0.75,0.34-0.73,0.82c0.02,0.42,0.42,0.77,0.85,0.73c0.44-0.04,0.78-0.45,0.72-0.87
			c-0.03-0.22-0.16-0.38-0.31-0.53c-0.03,0.01-0.04-0.01-0.06-0.03c-0.01,0-0.02-0.01-0.03-0.01c-0.03-0.01-0.06-0.03-0.09-0.04
			c0.02-0.07,0.14,0.08,0.12-0.07c-0.04-0.28-0.09-0.55-0.15-0.86c-0.05,0.15-0.1,0.29-0.14,0.43c-0.05,0.14-0.09,0.27-0.14,0.41
			C21.81,13.03,21.78,13.02,21.76,13.02"/>
		<path class="st12" d="M19.67,12.65c-0.01,0-0.01,0.01-0.02,0.01c0.1,0.28,0.19,0.55,0.29,0.83c0.1-0.04,0.19-0.12,0.28-0.18
			C20.04,13.09,19.85,12.87,19.67,12.65"/>
		<path class="st12" d="M20.4,12.26c-0.01,0.32-0.03,0.64,0,0.95c0.14-0.06,0.28-0.11,0.42-0.17C20.68,12.78,20.54,12.52,20.4,12.26
			"/>
		<path class="st12" d="M22.73,13.39c0.08-0.26,0.11-0.52,0.15-0.79c-0.14,0.21-0.29,0.41-0.43,0.62
			C22.54,13.27,22.64,13.33,22.73,13.39"/>
		<path class="st12" d="M19.53,11.52c0.02-0.01,0.02-0.01,0.02-0.01c0.02-0.02,0.04-0.04,0.06-0.06c0.44-0.47,0.97-0.7,1.61-0.71
			c0.63-0.01,1.17,0.21,1.67,0.58c0.07,0.05,0.14,0.16,0.21,0.14c0.06-0.02,0.07-0.15,0.11-0.23c0.04-0.08,0.02-0.13-0.05-0.18
			c-0.64-0.56-1.39-0.79-2.23-0.71c-0.51,0.05-0.96,0.23-1.35,0.57c-0.23,0.2-0.23,0.21-0.12,0.49
			C19.5,11.44,19.52,11.48,19.53,11.52"/>
		<path class="st12" d="M24.97,11.48c0.53-0.44,1.11-0.73,1.8-0.74c0.71-0.01,1.29,0.26,1.77,0.79c0.05-0.11,0.09-0.22,0.13-0.32
			c0.03-0.06,0.01-0.1-0.03-0.14c-0.15-0.17-0.33-0.31-0.53-0.42c-0.96-0.55-2.25-0.42-3.14,0.32c-0.17,0.14-0.17,0.14-0.09,0.35
			C24.92,11.37,24.94,11.42,24.97,11.48"/>
		<path class="st12" d="M16.13,24.03c0.49,0.3,0.91,0.69,1.33,1.08c0.16,0.15,0.3,0.32,0.49,0.45c0.6,0.01,1.16-0.12,1.66-0.45
			c0.06-0.04,0.07,0,0.1,0.03c0.18,0.22,0.38,0.42,0.6,0.6c0.03-0.12,0.05-0.24,0.09-0.36c0.12-0.34,0.33-0.59,0.71-0.66
			c0.06-0.01,0.11,0,0.17-0.01c0.02,0,0.04-0.01,0.05-0.02c0.12-0.71,0.24-1.42,0.36-2.13c0.08-0.46,0.16-0.91,0.24-1.38
			c0.08,0.06,0.15,0.12,0.22,0.17c0.6,0.44,1.25,0.73,2,0.72c0.5-0.01,0.97-0.17,1.43-0.36c0.31-0.13,0.61-0.29,0.91-0.48
			c0.19,1.18,0.38,2.34,0.57,3.5c0.04-0.01,0.09-0.01,0.13-0.02c0.47-0.07,0.78,0.14,0.88,0.56c0.01,0.03,0.02,0.05,0.02,0.08
			c0.01,0,0.02-0.01,0.03-0.01c1.54-0.3,2.37-1.72,2.17-3.21c-0.18,0.21-0.4,0.31-0.68,0.24c-0.29-0.07-0.49-0.39-0.45-0.67
			c0.06-0.35,0.33-0.56,0.69-0.53c0.29,0.02,0.54,0.29,0.54,0.6c0,0.08-0.01,0.15-0.02,0.23c0.21,0.03,0.42,0.05,0.63,0.03
			c-0.04-0.02-0.07-0.04-0.11-0.05c-0.25-0.12-0.4-0.39-0.35-0.66c0.05-0.29,0.28-0.5,0.56-0.51c0.29-0.02,0.54,0.14,0.63,0.4
			c0.1,0.27,0,0.56-0.24,0.72c-0.02,0.02-0.05,0.03-0.07,0.05c0.02,0,0.05,0,0.07-0.01c1.05-0.25,1.76-0.89,2.06-1.93
			c0.26-0.91,0.1-1.78-0.33-2.61c-0.04-0.08-0.03-0.11,0.05-0.15c0.26-0.13,0.5-0.31,0.69-0.52c0.68-0.75,0.87-1.64,0.69-2.61
			c-0.19-1.07-0.75-1.92-1.6-2.58c-0.08-0.06-0.09-0.1-0.05-0.19c0.23-0.58,0.27-1.18,0.15-1.79c-0.18-0.92-0.63-1.69-1.32-2.31
			c-0.66-0.6-1.43-0.97-2.33-1.05c-0.09-0.01-0.08-0.06-0.09-0.11C29,4.54,28.02,3.51,26.47,3.05c-0.85-0.25-1.69-0.17-2.46,0.31
			c-0.08,0.05-0.1,0.01-0.14-0.04c-0.75-0.88-1.69-1.42-2.86-1.51c-0.12,0-0.24,0-0.36,0c-0.08,0.01-0.15,0.01-0.23,0.03
			c-1.08,0.17-1.83,0.74-2.23,1.77c-0.01,0.04-0.01,0.09-0.06,0.11c-0.58-0.37-1.2-0.6-1.89-0.63c-0.88-0.04-1.66,0.22-2.26,0.88
			c-0.68,0.76-0.83,1.66-0.66,2.63c0.06,0.32,0.17,0.63,0.3,0.94c-0.13,0.01-0.24,0.01-0.36,0.02c-0.83,0.07-1.56,0.37-2.15,0.96
			c-1.12,1.1-1.28,2.74-0.4,4.06c0.06,0.09,0.13,0.18,0.19,0.27c-0.09,0.06-0.19,0.11-0.28,0.18c-0.96,0.66-1.41,1.56-1.27,2.73
			c0.09,0.72,0.45,1.31,0.98,1.8c0.06,0.05,0.08,0.1,0.06,0.17c-0.07,0.39-0.06,0.77,0,1.16c0.32,1.81,1.91,3.26,3.65,3.41
			c0.06,0,0.08,0.03,0.1,0.08c0.09,0.4,0.25,0.77,0.45,1.13c0.03,0.01,0.05,0.02,0.08,0.02C15.2,23.58,15.68,23.76,16.13,24.03
			 M32.77,20.45c-0.02,0.36-0.3,0.61-0.67,0.59c-0.31-0.02-0.57-0.27-0.56-0.63c0.01-0.36,0.31-0.62,0.65-0.6
			C32.53,19.82,32.79,20.12,32.77,20.45z M33.15,19.05c0,0.34-0.27,0.61-0.62,0.61c-0.35,0-0.62-0.26-0.62-0.6
			c0-0.35,0.27-0.63,0.61-0.63C32.87,18.42,33.15,18.71,33.15,19.05z M32.17,17.05c0.35,0.02,0.61,0.3,0.6,0.64
			c-0.01,0.34-0.29,0.61-0.63,0.6c-0.33-0.01-0.6-0.26-0.6-0.62C31.53,17.32,31.84,17.03,32.17,17.05z M31.18,16.07
			c0.34,0,0.62,0.28,0.61,0.63c0,0.34-0.28,0.61-0.62,0.61c-0.34,0-0.61-0.28-0.61-0.62C30.56,16.34,30.83,16.07,31.18,16.07z
			 M15.73,18.95c0-0.33,0.29-0.62,0.62-0.62c0.34,0,0.62,0.28,0.62,0.63c0,0.34-0.27,0.61-0.61,0.61
			C16,19.57,15.72,19.29,15.73,18.95z M16.1,20.32c0-0.34,0.27-0.61,0.62-0.61c0.35,0,0.62,0.28,0.61,0.63c0,0.35-0.27,0.6-0.62,0.6
			C16.37,20.94,16.1,20.67,16.1,20.32z M19.08,22.3c-0.34,0-0.61-0.27-0.62-0.61c0-0.36,0.26-0.63,0.61-0.63
			c0.34,0,0.63,0.28,0.62,0.62C19.69,22.02,19.42,22.3,19.08,22.3z M20.45,21.93c-0.35-0.01-0.63-0.3-0.61-0.65
			c0.02-0.34,0.3-0.6,0.63-0.59c0.34,0.01,0.62,0.3,0.6,0.63C21.06,21.66,20.77,21.94,20.45,21.93z M28.42,22.02
			c-0.34,0-0.62-0.27-0.62-0.61c0-0.34,0.28-0.62,0.63-0.62c0.35,0,0.61,0.26,0.61,0.62C29.03,21.76,28.77,22.02,28.42,22.02z
			 M23.53,5.31c0.18-0.03,0.18-0.03,0.19-0.21c0.02-0.59,0.63-0.99,1.18-0.77c0.04,0.02,0.09,0.03,0.13,0.09
			c-0.36-0.1-0.68-0.07-0.93,0.22c-0.25,0.29-0.24,0.61-0.07,0.94c-0.07,0.02-0.11-0.01-0.15-0.02c-0.31-0.1-0.63,0-0.8,0.26
			c-0.16,0.24-0.13,0.59,0.07,0.83c0.03,0.03,0.06,0.06,0.08,0.1v0c-0.07-0.02-0.12-0.04-0.16-0.08c-0.04-0.04-0.08-0.09-0.11-0.14
			c-0.02-0.04-0.04-0.07-0.05-0.11C22.69,5.91,22.99,5.39,23.53,5.31z M23.24,6.74c0.01,0,0.01,0.01,0.01,0.01
			C23.24,6.76,23.24,6.75,23.24,6.74z M18.59,13.49c0.03-1.13,0.15-2.25,0.55-3.31c0.41-1.07,1.07-1.92,2.12-2.43
			c0.41-0.2,0.85-0.33,1.29-0.42c0.02,0,0.05,0,0.08,0c-0.16,0.41-0.17,0.81-0.02,1.21c0.43,1.13,1.88,1.4,2.71,0.5
			c0.06-0.06,0.08-0.07,0.14,0c0.74,0.89,2.16,0.73,2.68-0.32c0.06-0.11,0.08-0.09,0.15-0.02c0.54,0.6,0.89,1.31,1.12,2.08
			c0.23,0.77,0.33,1.57,0.37,2.37c0.04,0.82,0.01,1.63-0.1,2.44c0,0.04,0,0.07-0.01,0.11c0.36-0.02,0.6,0.12,0.7,0.41
			c0.08,0.25,0.03,0.48-0.17,0.66c-0.19,0.17-0.42,0.21-0.66,0.11c-0.03-0.01-0.06-0.03-0.09-0.04c-0.12,0.4-0.23,0.79-0.38,1.18
			c-0.11,0.27-0.23,0.53-0.36,0.79c-0.23,0.42-0.49,0.82-0.81,1.19c0.18,0.28,0.2,0.51,0.08,0.73c-0.02,0.03-0.04,0.06-0.07,0.09
			c-0.23,0.29-0.67,0.29-0.92,0.02c-0.56,0.32-1.17,0.53-1.79,0.72c-0.34,0.1-0.68,0.18-1.03,0.2c-0.43,0.02-0.85-0.08-1.25-0.23
			c-0.39-0.13-0.75-0.32-1.1-0.53c-0.02-0.01-0.04-0.04-0.06-0.05c0,0-0.01,0-0.01,0c-0.01,0-0.02,0-0.03,0.01
			c0.01,0,0.02,0.01,0.02,0.03c0.01,0,0.02,0.01,0.01,0.02c-0.01,0.01-0.02,0-0.02-0.01c-0.01,0-0.02-0.01-0.03-0.01
			c-0.03-0.02-0.06-0.04-0.09-0.06c-0.27,0.06-0.51-0.03-0.65-0.2c-0.02-0.03-0.04-0.06-0.06-0.09c-0.02-0.03-0.03-0.06-0.04-0.1
			c-0.02-0.07-0.03-0.14-0.03-0.22c-0.52-0.52-0.94-1.11-1.27-1.77c-0.26-0.53-0.46-1.08-0.6-1.65c-0.01-0.02-0.02-0.05-0.02-0.07
			c-0.09-0.03-0.17-0.07-0.24-0.13c-0.07-0.05-0.12-0.12-0.16-0.19c-0.13-0.23-0.09-0.53,0.14-0.75c0.01-0.01,0.03-0.03,0.04-0.04
			C18.61,14.97,18.57,14.23,18.59,13.49z M17.7,21.93c-0.33,0-0.62-0.28-0.62-0.61c0-0.35,0.27-0.62,0.61-0.62
			c0.35,0,0.62,0.28,0.62,0.62C18.32,21.65,18.04,21.93,17.7,21.93z M17.69,15.98c0.34,0,0.62,0.28,0.62,0.62
			c0,0.34-0.27,0.61-0.61,0.61c-0.35,0-0.62-0.27-0.62-0.62C17.08,16.26,17.36,15.98,17.69,15.98z M16.72,16.96
			c0.35,0,0.61,0.26,0.62,0.61c0,0.35-0.26,0.62-0.6,0.62c-0.35,0-0.62-0.26-0.62-0.61C16.1,17.23,16.37,16.96,16.72,16.96z
			 M16.24,15.23C16.25,15.23,16.25,15.23,16.24,15.23c0,0.01,0,0.01,0,0.01C16.24,15.24,16.24,15.24,16.24,15.23
			C16.24,15.23,16.24,15.23,16.24,15.23z M16.2,15.26c-0.01,0-0.01,0-0.02,0.01C16.19,15.27,16.19,15.26,16.2,15.26
			C16.2,15.26,16.2,15.26,16.2,15.26z M14.94,13.51c0,0-0.01,0.01-0.01,0.01C14.93,13.52,14.93,13.52,14.94,13.51
			C14.93,13.51,14.94,13.51,14.94,13.51z M13.97,15.34c-0.22-0.3-0.2-0.63-0.04-0.95c0.05-0.09,0.11-0.18,0.17-0.29
			c-0.18,0.03-0.34,0.02-0.5-0.01c-0.68-0.15-1.14-0.66-1.22-1.38c-0.02-0.2-0.01-0.39,0.02-0.56c0.15-0.76,0.76-1.31,1.36-1.53
			c0,0,0,0,0,0c-0.01,0.07-0.06,0.08-0.11,0.1c-0.02,0.01-0.03,0.01-0.05,0.02c-0.12,0.06-0.22,0.15-0.32,0.23
			c-0.47,0.41-0.75,0.91-0.73,1.55c0.02,0.79,0.62,1.4,1.37,1.38c0.19,0,0.37-0.06,0.54-0.15c0.15-0.08,0.29-0.18,0.46-0.23
			c-0.02,0.04-0.05,0.07-0.08,0.11c-0.06,0.07-0.12,0.13-0.19,0.19c-0.03,0.03-0.07,0.06-0.1,0.1c-0.16,0.17-0.32,0.34-0.44,0.54
			c-0.22,0.37-0.14,0.75,0.22,1c0.36,0.25,0.76,0.24,1.16,0.11c0.21-0.07,0.41-0.18,0.61-0.26c0.01-0.01,0.02-0.01,0.03-0.02
			c0.01-0.02,0.03-0.03,0.05-0.02c0,0.02-0.02,0.03-0.04,0.03c-0.01,0.01-0.02,0.01-0.03,0.02c-0.22,0.15-0.45,0.29-0.7,0.37
			c-0.19,0.07-0.39,0.1-0.61,0.08C14.47,15.76,14.17,15.62,13.97,15.34z"/>
		<path class="st12" d="M27,12.97c-0.07-0.3-0.14-0.6-0.2-0.9c-0.01,0-0.01,0-0.02,0c-0.07,0.3-0.14,0.6-0.21,0.9
			C26.71,12.97,26.85,12.97,27,12.97"/>
		<path class="st12" d="M28.16,13.44c0.1-0.21,0.21-0.43,0.31-0.64c-0.04-0.01-0.06,0.03-0.09,0.05c-0.17,0.14-0.34,0.28-0.52,0.41
			C27.96,13.33,28.05,13.4,28.16,13.44"/>
		<path class="st12" d="M26.12,12.3c-0.01,0-0.02,0-0.02,0.01c-0.02,0.26-0.04,0.52-0.06,0.78c0.12-0.03,0.25-0.06,0.37-0.09
			C26.31,12.76,26.21,12.53,26.12,12.3"/>
		<path class="st12" d="M26.35,13.6c-0.1,0.49,0.24,0.93,0.74,0.97c0.03,0,0.06-0.01,0.08,0.02c0.02,0.01,0.04,0,0.06-0.01
			c0.02-0.01,0.04-0.02,0.05-0.02c0.03-0.02,0.07-0.03,0.11-0.03c0,0,0,0,0,0c0.23-0.1,0.41-0.25,0.5-0.49
			c0.1-0.3,0.05-0.56-0.17-0.79c-0.02-0.02-0.05-0.03-0.04-0.06c-0.03,0.01-0.04,0-0.04-0.03c-0.01,0-0.02-0.01-0.04-0.01
			c0.01-0.01,0.01-0.01,0.02-0.02c0.04-0.29,0.07-0.57,0.1-0.86c-0.18,0.22-0.32,0.44-0.47,0.67c-0.03,0.05-0.05,0.09-0.12,0.07
			C26.62,13.01,26.4,13.33,26.35,13.6"/>
		<polyline class="st12" points="28.48,12.79 28.48,12.8 28.48,12.79 28.48,12.79 		"/>
		<path class="st12" d="M25.44,12.42c-0.01,0-0.01,0.01-0.02,0.01c0.02,0.31,0.04,0.62,0.06,0.92c0.13-0.07,0.26-0.14,0.39-0.21
			C25.72,12.9,25.58,12.66,25.44,12.42"/>
		<path class="st12" d="M21.51,12.96c-0.1-0.25-0.2-0.51-0.29-0.76c-0.01,0-0.01,0-0.02,0c-0.04,0.26-0.08,0.52-0.12,0.79
			C21.22,12.98,21.37,12.97,21.51,12.96"/>
		<polyline class="st12" points="28.47,12.8 28.47,12.8 28.48,12.8 28.47,12.8 		"/>
		<polyline class="st12" points="28.47,12.8 28.48,12.8 28.48,12.8 28.47,12.8 		"/>
		<polyline class="st12" points="22.29,13.16 22.29,13.16 22.29,13.16 22.29,13.16 		"/>
		<polyline class="st12" points="27.67,13.19 27.67,13.19 27.67,13.19 27.67,13.19 27.67,13.19 		"/>
		<polyline class="st12" points="27.62,13.17 27.62,13.17 27.62,13.16 27.62,13.17 27.62,13.17 		"/>
		<path class="st13" d="M11.05,42.32c0.15-0.28,0.31-0.56,0.5-0.81c0.3-0.4,0.64-0.76,1.05-1.06c0.01-0.01,0.04-0.01,0.05-0.02
			c-0.08,0.15-0.23,0.24-0.34,0.37c-0.36,0.41-0.66,0.86-0.79,1.39c-0.07,0.3-0.05,0.61,0.01,0.91c-0.17-0.2-0.3-0.42-0.41-0.66
			c-0.02-0.04-0.02-0.09-0.07-0.1l0,0C11.05,42.34,11.05,42.33,11.05,42.32 M8.55,33.11c0.11,0.96,0.42,1.83,1.06,2.58
			c0.27,0.32,0.5,0.67,0.57,1.09c0.09,0.54,0.13,1.08,0.17,1.62c0.05,0.77,0.1,1.54,0.22,2.31c0.09,0.54,0.23,1.07,0.48,1.56
			c0.18-0.67,0.51-1.25,0.98-1.75c0.67-0.71,1.47-1.16,2.43-1.33c0.33-0.06,0.65-0.09,0.98-0.07c0.78,0.05,1.51,0.27,2.17,0.71
			c0.04,0.03,0.07,0.07,0.13,0.07l0,0c-0.11-0.24-0.22-0.48-0.31-0.73c-0.13-0.4-0.19-0.8-0.23-1.22c-0.05-0.47-0.09-0.94-0.11-1.42
			c-0.02-0.43-0.01-0.86,0.04-1.29c0.1-1.02,0.4-1.98,0.72-2.95c0.26-0.8,0.53-1.59,0.8-2.38c0.03-0.09,0.03-0.16-0.04-0.24
			c-0.29-0.31-0.57-0.64-0.85-0.96c-0.38-0.44-0.77-0.88-1.15-1.32c-0.26-0.3-0.53-0.6-0.79-0.9c-0.22-0.25-0.44-0.51-0.67-0.76
			c-0.05-0.06-0.04-0.09,0.01-0.14c0.15-0.14,0.45-0.17,0.68-0.07c0.25,0.11,0.43,0.31,0.6,0.52c0.43,0.52,0.83,1.05,1.19,1.61
			c0.39,0.59,0.73,1.21,1.04,1.84c0.02,0.04,0.03,0.08,0.08,0.12c0.3-0.93,0.55-1.87,0.68-2.83c0.02,0.17-0.01,0.35-0.02,0.52
			c-0.01,0.25-0.04,0.5-0.06,0.76c-0.03,0.38-0.06,0.77-0.09,1.15c-0.02,0.24-0.03,0.47-0.05,0.71c-0.03,0.38-0.06,0.75-0.09,1.13
			c-0.02,0.22-0.03,0.45-0.05,0.67c-0.03,0.39-0.06,0.79-0.09,1.18c-0.02,0.25-0.03,0.5-0.05,0.75c-0.03,0.36-0.06,0.73-0.09,1.09
			c-0.02,0.23-0.03,0.46-0.05,0.69c-0.03,0.38-0.06,0.77-0.09,1.15c-0.02,0.24-0.03,0.47-0.05,0.71c-0.03,0.38-0.06,0.75-0.09,1.13
			c-0.02,0.22-0.03,0.45-0.05,0.67c-0.03,0.39-0.06,0.79-0.09,1.18c-0.01,0.09-0.01,0.18-0.01,0.27c0.49,0.23,1,0.38,1.53,0.48
			c0.4,0.07,0.81,0.13,1.21,0.18c0.5,0.07,1,0.14,1.51,0.19c0.31,0.03,0.62,0.06,0.92,0.09c0.83,0.07,1.66,0.11,2.5,0.09
			c0.58-0.02,1.15-0.08,1.72-0.18c1.24-0.21,2.43-0.57,3.63-0.94c0.04-0.01,0.08-0.02,0.12-0.02c0.07-0.37,0.1-0.73,0.02-1.11
			c-0.12-0.58-0.21-1.18-0.31-1.77c-0.11-0.62-0.22-1.23-0.33-1.85c-0.11-0.63-0.22-1.27-0.33-1.9c-0.09-0.53-0.19-1.06-0.28-1.59
			c-0.1-0.59-0.2-1.17-0.3-1.76c-0.1-0.57-0.2-1.14-0.3-1.71c-0.03-0.19-0.06-0.38-0.08-0.57c0.16,0.45,0.32,0.9,0.52,1.36
			c0.07-0.09,0.06-0.19,0.08-0.27c0.26-1.09,0.76-2.07,1.46-2.95c0.33-0.42,0.69-0.82,1.12-1.15c0.17-0.13,0.35-0.23,0.58-0.17
			c0.13,0.03,0.21,0.11,0.28,0.22c0.07,0.11,0.05,0.21-0.03,0.31c-0.25,0.3-0.5,0.6-0.75,0.9c-0.33,0.4-0.67,0.8-1,1.21
			c-0.34,0.41-0.68,0.82-1.02,1.23c-0.21,0.25-0.42,0.5-0.63,0.75c-0.02,0.03-0.04,0.05-0.02,0.09c0.08,0.19,0.16,0.37,0.25,0.59
			c0.55-1.08,1.38-1.74,2.54-1.98c0.39-0.08,1.02-0.08,1.23,0c-0.24,0.13-0.48,0.26-0.72,0.39c-0.98,0.52-1.96,1.05-2.94,1.56
			c-0.12,0.06-0.07,0.13-0.03,0.2c0.24,0.55,0.46,1.1,0.64,1.67c0.16,0.52,0.27,1.05,0.36,1.59c0.06,0.38,0.12,0.77,0.16,1.16
			c0.04,0.33,0.06,0.66,0.08,0.99c0.05,0.77,0.03,1.55,0.02,2.32c0,0.32-0.01,0.64,0,0.97c0.04-0.13,0.09-0.25,0.13-0.38
			c0.27-0.78,0.64-1.52,1.04-2.23c0.52-0.91,1.12-1.77,1.67-2.66c0.41-0.67,0.8-1.34,1.17-2.03c0.32-0.61,0.64-1.22,0.93-1.85
			c0.46-0.98,0.89-1.97,1.27-2.98c0.19-0.52,0.38-1.04,0.55-1.56c0.01-0.04,0.02-0.08,0.05-0.11c0.06-0.07-0.04-0.09-0.04-0.14
			c-0.02-0.27-0.06-0.53-0.1-0.8c-0.03-0.17-0.02-0.35-0.1-0.5c-0.53-0.52-1.16-0.83-1.89-0.95c-0.52-0.09-1.04-0.08-1.57-0.08
			c-0.51,0.01-1.02,0.05-1.52,0.15c-1.04,0.22-1.86,0.74-2.41,1.67c-0.22,0.36-0.41,0.73-0.63,1.09c-0.37,0.63-0.91,0.94-1.65,0.88
			c-0.11-0.01-0.2-0.04-0.28-0.12c-0.11-0.1-0.17-0.22-0.2-0.36c-0.07-0.27-0.04-0.55-0.07-0.83c-0.01-0.03-0.02-0.05-0.02-0.08
			c-0.1-0.43-0.42-0.63-0.88-0.56c-0.04,0.01-0.09,0.01-0.13,0.02c-0.46,0.13-0.93,0.26-1.4,0.34c-0.04,0.01-0.09,0.02-0.13,0.02
			c-0.07,0.51-0.06,1.01-0.05,1.52c0.01,0.24,0.04,0.47,0.07,0.71c0.02,0.16,0.01,0.18-0.14,0.2c-0.12,0.02-0.25,0.03-0.37,0.06
			c-0.06,0.01-0.08-0.01-0.09-0.06c-0.02-0.3-0.06-0.61-0.08-0.91c-0.02-0.35,0-0.69,0.01-1.04c0-0.13,0.02-0.26,0.02-0.4
			c-0.16-0.02-0.32,0.02-0.48,0.03c-0.33,0-0.65-0.01-0.97-0.05c-0.02,0.47-0.04,0.93-0.06,1.4c-0.01,0.2-0.01,0.4-0.02,0.6
			c0,0.1-0.02,0.13-0.14,0.11c-0.13-0.02-0.26-0.01-0.39-0.01c-0.08,0-0.11-0.03-0.1-0.11c0.02-0.46,0.05-0.91,0.07-1.37
			c0.01-0.25,0-0.5,0.03-0.75c-0.26-0.1-0.54-0.15-0.81-0.22c-0.04-0.01-0.08-0.02-0.12-0.02c0,0.34,0.01,0.68-0.02,1.03
			c-0.04,0.43-0.1,0.86-0.2,1.28c-0.02,0.08-0.06,0.1-0.14,0.08c-0.12-0.04-0.25-0.06-0.37-0.09c-0.07-0.02-0.11-0.05-0.09-0.13
			c0.08-0.3,0.11-0.62,0.16-0.92c0.01-0.08,0.02-0.17,0.02-0.25c0-0.29,0.07-0.59,0.01-0.88c-0.01-0.07,0-0.12,0.09-0.12
			c0.1-0.01,0.21-0.02,0.31-0.02c-0.06-0.05-0.13-0.02-0.2-0.02c-0.06,0-0.12,0-0.18-0.03c-0.07,0.04-0.15,0.02-0.22,0.03
			c-0.38,0.07-0.59,0.32-0.71,0.66c-0.04,0.12-0.06,0.24-0.09,0.36c-0.01,0.19-0.04,0.38-0.12,0.56c-0.03,0.07-0.07,0.1-0.15,0.11
			c-0.5,0.07-0.96-0.04-1.39-0.3c-0.26-0.16-0.51-0.33-0.71-0.56c-0.19-0.12-0.33-0.29-0.49-0.45c-0.42-0.39-0.83-0.79-1.33-1.08
			c-0.45-0.27-0.93-0.45-1.46-0.52c-0.03,0-0.05-0.01-0.08-0.02c-0.48-0.04-0.95-0.02-1.42,0.04c-0.72,0.1-1.34,0.38-1.86,0.88
			c-0.49,0.48-0.87,1.03-1.2,1.63c-0.59,1.1-0.99,2.27-1.28,3.49c-0.18,0.75-0.31,1.52-0.34,2.29c0,0.25,0,0.5,0,0.75
			C8.5,32.76,8.52,32.93,8.55,33.11z M25.13,36.28c-0.01,0.2-0.01,0.41-0.02,0.62c-0.02,0.31-0.02,0.63-0.03,0.94
			c-0.03,0.6-0.05,1.2-0.08,1.8c-0.01,0.31-0.01,0.63-0.06,0.97c-0.36-0.92-0.48-1.85-0.45-2.81c0.04-0.96,0.23-1.87,0.67-2.73
			C25.18,35.48,25.16,35.88,25.13,36.28z M17.62,30.13c-0.69-0.17-1.37-0.34-2.06-0.51c-0.03-0.01-0.08,0-0.08-0.04
			c-0.01-0.03,0.04-0.05,0.06-0.07c0.3-0.25,0.65-0.38,1.04-0.36c0.41,0.02,0.78,0.18,1.12,0.41c0.24,0.16,0.46,0.34,0.64,0.56
			c0.04,0.05,0.09,0.1,0.12,0.2C18.16,30.26,17.89,30.2,17.62,30.13z M27.01,25.05c0.04,0.37,0.09,0.73,0.14,1.1
			c0.04,0.31,0.08,0.61,0.12,0.92c0.01,0.07,0.01,0.1-0.08,0.11c-0.14,0.01-0.28,0.03-0.42,0.05c-0.07,0.01-0.1-0.01-0.11-0.09
			c-0.03-0.31-0.08-0.62-0.12-0.93c-0.05-0.36-0.09-0.72-0.14-1.08c-0.02-0.14-0.01-0.16,0.13-0.18c0.11-0.01,0.22-0.02,0.35-0.03
			C26.96,24.89,26.99,24.93,27.01,25.05z M29.36,26.89c0.05,0.3,0.1,0.6,0.16,0.91C29.43,27.5,29.37,27.2,29.36,26.89z M30.31,22.13
			c-0.18,0.21-0.4,0.31-0.68,0.24c-0.29-0.07-0.49-0.39-0.45-0.67c0.06-0.35,0.33-0.56,0.69-0.53c0.29,0.02,0.54,0.29,0.54,0.6
			c0,0.08-0.01,0.15-0.02,0.23C30.37,22.03,30.34,22.08,30.31,22.13z M31.02,22.01c-0.04-0.02-0.07-0.04-0.11-0.05
			c-0.25-0.12-0.4-0.39-0.35-0.66c0.05-0.29,0.28-0.5,0.56-0.51c0.29-0.02,0.54,0.14,0.63,0.4c0.1,0.27,0,0.56-0.24,0.72
			c-0.02,0.02-0.05,0.03-0.07,0.05C31.32,22.03,31.17,22.02,31.02,22.01z M31.17,17.31c-0.34,0-0.61-0.28-0.61-0.62
			c0-0.35,0.27-0.62,0.62-0.62c0.34,0,0.62,0.28,0.61,0.63C31.79,17.04,31.51,17.31,31.17,17.31z M19.07,21.07
			c0.34,0,0.63,0.28,0.62,0.62c0,0.34-0.28,0.61-0.62,0.61c-0.34,0-0.61-0.27-0.62-0.61C18.46,21.33,18.72,21.07,19.07,21.07z
			 M32.53,19.66c-0.35,0-0.62-0.26-0.62-0.6c0-0.35,0.27-0.63,0.61-0.63c0.34,0,0.63,0.29,0.62,0.62
			C33.15,19.39,32.87,19.66,32.53,19.66z M17.7,17.21c-0.35,0-0.62-0.27-0.62-0.62c0-0.34,0.27-0.62,0.61-0.62
			c0.34,0,0.62,0.28,0.62,0.62C18.32,16.94,18.04,17.21,17.7,17.21z M17.7,20.69c0.35,0,0.62,0.28,0.62,0.62
			c0,0.33-0.28,0.62-0.62,0.62c-0.33,0-0.62-0.28-0.62-0.61C17.08,20.97,17.35,20.69,17.7,20.69z M32.77,20.45
			c-0.02,0.36-0.3,0.61-0.67,0.59c-0.31-0.02-0.57-0.27-0.56-0.63c0.01-0.36,0.31-0.62,0.65-0.6
			C32.53,19.82,32.79,20.12,32.77,20.45z M16.96,18.96c0,0.34-0.27,0.61-0.61,0.61c-0.34,0-0.62-0.28-0.62-0.62
			c0-0.33,0.29-0.62,0.62-0.62C16.68,18.33,16.96,18.61,16.96,18.96z M16.71,20.94c-0.34,0-0.61-0.27-0.61-0.62
			c0-0.34,0.27-0.61,0.62-0.61c0.35,0,0.62,0.28,0.61,0.63C17.33,20.69,17.06,20.94,16.71,20.94z M20.47,20.69
			c0.34,0.01,0.62,0.3,0.6,0.63c-0.02,0.34-0.3,0.62-0.63,0.61c-0.35-0.01-0.63-0.3-0.61-0.65C19.85,20.94,20.13,20.68,20.47,20.69z
			 M32.77,17.69c-0.01,0.34-0.29,0.61-0.63,0.6c-0.33-0.01-0.6-0.26-0.6-0.62c0-0.34,0.31-0.63,0.63-0.61
			C32.52,17.06,32.78,17.35,32.77,17.69z M29.03,21.4c0,0.35-0.26,0.61-0.61,0.61c-0.34,0-0.62-0.27-0.62-0.61
			c0-0.34,0.28-0.62,0.63-0.62C28.77,20.79,29.03,21.05,29.03,21.4z M17.33,17.57c0,0.35-0.26,0.62-0.6,0.62
			c-0.35,0-0.62-0.26-0.62-0.61c0-0.34,0.27-0.61,0.61-0.61C17.06,16.96,17.33,17.22,17.33,17.57z M29.47,16.84
			c0.07-0.38,0.14-0.76,0.22-1.13c0.36-0.02,0.6,0.12,0.7,0.41c0.08,0.25,0.03,0.48-0.17,0.66c-0.19,0.17-0.42,0.21-0.66,0.11
			C29.52,16.87,29.5,16.86,29.47,16.84z M26.99,20.84c0.2-0.18,0.42-0.33,0.61-0.52c0.1-0.1,0.2-0.21,0.3-0.32
			c0.21,0.32,0.21,0.58,0.01,0.82C27.68,21.11,27.24,21.12,26.99,20.84z M18.71,15.71c0.06,0.33,0.13,0.66,0.19,0.99
			c0.01,0.04,0.02,0.08,0.02,0.12c-0.5-0.16-0.63-0.7-0.25-1.07C18.69,15.74,18.7,15.72,18.71,15.71z M20.82,20.31
			c0.25,0.22,0.5,0.44,0.79,0.61C21.17,21.02,20.81,20.74,20.82,20.31z"/>
	</g>
	
		<rect x="-1.74" y="4.16" style="clip-path:url(#SVGID_00000125584696709207117240000006080483127604050054_);fill:none;" width="48.75" height="48.75"/>
</g>
</svg>
